<svg xmlns="http://www.w3.org/2000/svg" viewBox="0 0 553.01 827.07">
    <defs>
        <style>.cls-1{fill:#ccc;}.cls-2{fill:#3fa9f5;}.cls-3{fill:#fcee21;}</style>
    </defs>
    <g id="Layer_2" data-name="Layer 2">
        <g id="Layer_1-2" data-name="Layer 1">
            <path class=" color cls-1"
                d="M413.72,2c6.22.43,6.78,26,15,27,5.35.63,7.75-9.87,15-10,6.06-.12,8,7.11,18,16,12.08,10.71,17.51,7.51,23,15,9.6,13.07,4.29,38.2-6,42-8.7,3.2-17.59-10.13-25-6-3.87,2.15-1.82,6-8,22-3.63,9.4-5.45,14.1-9.76,18.64-3.45,3.64-6.79,5.56-6.24,7.36.94,3,11.12-.12,14,4,3.69,5.25-10.21,14.23-9,25,1.78,15.74,33.63,15.55,40,36,3.85,12.32-5.07,20.92,1,28,7.15,8.32,22.23-.38,28,7,6.56,8.37-2.9,32.3-16,35-11.67,2.4-23.34-12.7-25-11s12.89,15.68,23,38c3.53,7.78,12,26.46,6,32-7.61,7-33.8-11.51-37-7-2.29,3.23,11.95,11.77,11,23-1.1,13.07-21.42,13.69-28,29-8.27,19.24,9.85,50.87,24,51,3.8,0,6.14-2.21,28-28,15.68-18.5,17.72-21.17,23-25,2.14-1.55,4.26-2.95,4.42-3.05a56.85,56.85,0,0,1,16.94-7.57c4.53-1.1,15.64-3.8,17.64-.38,3.56,6.07-27.72,21.72-25,40,1.84,12.32,16.81,16.67,15,23-2.91,10.18-43.11,3.71-46,14-1.6,5.72,10.26,9.83,16,26,2.71,7.6,5,20.62,0,24-6.44,4.32-16.91-12.62-36-13-12.78-.26-29.2,6.91-34,21-5.1,15,4.33,33.66,12,34,9.43.4,12-27.05,25-28,10.16-.75,21.94,15,19,22-2,4.71-9.66,2.84-13,8-4.66,7.22,4.17,20.55,9,28,24.4,37.55,36.59,56.32,33,62-5.47,8.66-44.43,3.8-63-20-14.86-19.07-13.21-45.87-20-46-4.59-.1-4.54,12.23-13,16-14.53,6.47-32.11-22.19-45-17-11.68,4.7-16.3,36-5,57,6.16,11.44,13.59,13.44,13,21-.92,12-20.57,22.59-35.76,23.09a29.6,29.6,0,0,1-4.24-.09c-9.8-1-13.33-7.08-25.93-10.44-2.2-.59-3.32-.87-4.07-.56-8.72,3.62-5.81,48.94,15,64,7,5,18.95,5.1,36.73,6.71A56.51,56.51,0,0,1,399.72,722s1.08.62,2.14,1.32c12.31,8,28.05,29.23,23.86,34.68-4.31,5.61-24.68-12.28-63-17-15.09-1.86-45.55-5.62-55,10-5.77,9.54-3.34,25.74,5,33,7.34,6.37,17.11,4,18,8s-8.28,11-18,14c-13.77,4.21-19.6-2.21-30,3-9,4.48-6.92,10.4-14,13-13.67,5-25.28-15.62-41-12-12.57,2.88-15,18.34-20,17-7.46-2-11.4-39.16,5-51,9.49-6.85,18.09.31,34-7,13.39-6.15,24.56-19.15,22-25-2.69-6.17-18.44.63-43-6-11.3-3.06-29.53-8-33-21s8.55-30.22,22-34c11.76-3.31,19,5.32,29,0a21.81,21.81,0,0,0,11-19c-.17-11.37-10.56-19.43-19-22-12.47-3.81-24.08,3.35-30,7-18.68,11.52-18.43,25.67-29,27-13,1.63-31.24-17.5-29-32,2.08-13.38,19.89-11.74,37-35,10.33-14,7.28-19.29,17-27,15.23-12.08,32-6.59,35-15,2.86-8.08-12.46-13.56-13-29-.47-13.58,11.08-17.6,8-29-2.67-9.92-14.12-16.95-15.62-17.87-5-3.06-5.8-2-8.38-4.13-11.18-9.26-.17-32.95-6-36-5.51-2.9-25.84,12.87-28,33-1.54,14.42,7.19,22.17,3,27-5.55,6.39-21.89-6.13-51-6-11.21,0-26.84.11-32,9-5.55,9.58,7,19.3,3,35-3.43,13.6-17.71,25.62-25,23-11.64-4.19,4.78-42.1-16-66-13-15-27.71-9.49-41-21-13-11.25-22.92-37.26-5-104,8.1-7.47,19.34-17.75,33-30,14.17-12.71,18.48-16.36,26-18,14.67-3.21,25.29,4.74,29,0,4.48-5.71-9.83-18.57-5-27,4.63-8.08,23-5.55,27-5a55.62,55.62,0,0,1,23,9c6.24,4,10.41,8.29,15,13,6.46,6.62,6.92,8.49,12,14,8.82,9.52,16.77,18.12,24,17,7.77-1.21,6.93-12.38,20-30a97.45,97.45,0,0,1,25-24c16.91-10.94,29.54-10.27,30-16,.37-4.52-7.33-6.6-21-17-9.06-6.91-26.4-20.11-24-28,2.55-8.37,24.86-2.77,30-13,6.24-12.41-20.56-32.51-15-41,3.71-5.66,20.88-4.85,30,4,10.63,10.29,4.37,25.69,13,30,1.86.92,5,1.62,26-9,17.44-8.82,26.25-13.36,31-20,2.77-3.87,7.92-12.55,8-27-27.66-12.49-43.76-11.91-53-5-7.93,5.93-9.33,15.43-14,15-6.7-.63-15-21.28-8-35,6.48-12.67,19.77-7.2,32-22,5.36-6.48,8.57-16.65,15-37,3.9-12.32,5.92-21.19,8-21,3.46.3.88,24.83,8,27,7.58,2.3,20.43-22.4,23-21,2.22,1.2-7.89,19.18-12,44-.4,2.42-6,37.6,3,41,5.86,2.2,16.42-9.51,22-19,9.82-16.67,3.17-24.57,12-40,9.75-17,25.91-21.53,24-27-2.25-6.5-25.23-.81-28-8-2-5.17,9.09-10.15,20-27C408.41,13,409.57,1.69,413.72,2Z" />
            <path class="color_seaside cls-2"
                d="M414.72,0c6.37.29,6.77,26,15,27,5.35.64,7.75-9.86,15-10,6.06-.11,8,7.12,18,16,12.08,10.72,17.51,7.52,23,15,9.6,13.08,4.29,38.21-6,42-8.7,3.21-17.59-10.12-25-6-3.87,2.16-1.82,6-8,22-3.63,9.4-5.45,14.11-9.76,18.64-3.45,3.64-6.79,5.56-6.24,7.36.94,3,11.12-.11,14,4,3.69,5.25-10.21,14.24-9,25,1.78,15.74,33.63,15.56,40,36,3.85,12.33-5.07,20.93,1,28,7.15,8.32,22.23-.38,28,7,6.56,8.38-2.9,32.31-16,35-11.67,2.4-23.34-12.69-25-11s12.89,15.69,23,38c3.53,7.78,12,26.47,6,32-7.61,7-33.8-11.51-37-7-2.29,3.24,11.95,11.77,11,23-1.1,13.07-21.42,13.7-28,29-8.27,19.25,9.85,50.88,24,51,3.8,0,6.14-2.2,28-28,15.68-18.49,17.72-21.16,23-25,2.14-1.55,4.26-2.94,4.42-3a56.85,56.85,0,0,1,16.94-7.57c4.53-1.1,15.64-3.81,17.64-.39,3.56,6.07-27.72,21.73-25,40,1.84,12.32,16.81,16.68,15,23-2.91,10.19-43.11,3.72-46,14-1.6,5.72,10.26,9.83,16,26,2.71,7.61,5,20.63,0,24-6.44,4.32-16.91-12.61-36-13-12.78-.25-29.2,6.92-34,21-5.1,15,4.33,33.67,12,34,9.43.41,12-27,25-28,10.16-.75,21.94,15,19,22-2,4.72-9.66,2.85-13,8-4.66,7.22,4.17,20.56,9,28,24.4,37.55,36.59,56.33,33,62-5.47,8.66-44.43,3.81-63-20-14.86-19.06-13.21-45.86-20-46-4.59-.09-4.54,12.24-13,16-14.53,6.48-32.11-22.18-45-17-11.68,4.7-16.3,36-5,57,6.16,11.45,13.59,13.45,13,21a12.78,12.78,0,0,1-.5,2.57,18,18,0,0,1-1.82,4c-3.77,6.06-12.38,10.73-12.38,10.73a44.35,44.35,0,0,1-25.3,5.69,41.46,41.46,0,0,1-5.5-.86c-15.87-3.33-20.78-11.57-24.5-10.14-8.09,3.12-6.48,48.46,15,64,7,5,18.95,5.11,36.73,6.72A56.45,56.45,0,0,1,400.72,720s1.08.63,2.14,1.32c12.31,8,28.05,29.24,23.86,34.68-4.31,5.61-24.68-12.28-63-17-15.09-1.86-45.55-5.61-55,10-5.77,9.55-3.34,25.75,5,33,7.34,6.38,17.11,4,18,8s-8.28,11-18,14c-13.77,4.22-19.6-2.2-30,3-9,4.49-6.92,10.41-14,13-13.67,5-25.28-15.61-41-12-12.57,2.89-15,18.34-20,17-7.46-2-11.4-39.16,5-51,9.49-6.84,18.09.32,34-7,13.39-6.15,24.56-19.14,22-25-2.69-6.17-18.44.64-43-6-11.3-3-29.53-8-33-21s8.55-30.21,22-34c11.76-3.3,19,5.33,29,0,6.66-3.53,11.12-11.39,11-19-.17-11.36-10.56-19.42-19-22a25.48,25.48,0,0,0-5.68-1c-9.75-.75-18,3.69-24.32,8-19.89,13.69-19.43,25.8-29,27-13,1.64-31.24-17.5-29-32,2.08-13.37,19.89-11.73,37-35,10.33-14,7.28-19.28,17-27,15.23-12.07,32-6.59,35-15,2.86-8.07-12.46-13.56-13-29-.47-13.57,11.08-17.6,8-29-2.67-9.91-14.12-16.95-15.62-17.87-5-3.05-5.8-2-8.38-4.13-11.18-9.25-.17-32.94-6-36-5.51-2.89-25.84,12.88-28,33-1.54,14.42,7.19,22.18,3,27-5.55,6.4-21.89-6.12-51-6-11.21.05-26.84.12-32,9-5.55,9.59,7,19.3,3,35-3.43,13.61-17.71,25.62-25,23-11.64-4.19,4.78-42.09-16-66-13-15-27.71-9.48-41-21-13-11.24-22.92-37.25-5-104,8.1-7.46,19.34-17.74,33-30,14.17-12.7,18.48-16.35,26-18,14.67-3.21,25.29,4.74,29,0,4.48-5.7-9.83-18.56-5-27,4.63-8.08,23-5.54,27-5a55.9,55.9,0,0,1,23,9c6.24,4,10.41,8.3,15,13,6.46,6.62,6.92,8.5,12,14,8.82,9.53,16.77,18.12,24,17,7.77-1.2,6.93-12.37,20-30a97.62,97.62,0,0,1,25-24c16.91-10.93,29.54-10.27,30-16,.37-4.51-7.33-6.59-21-17-9.06-6.9-26.4-20.11-24-28,2.55-8.36,24.86-2.76,30-13,6.24-12.4-20.56-32.5-15-41,3.71-5.65,20.88-4.84,30,4,10.63,10.3,4.37,25.7,13,30,1.86.93,5,1.63,26-9,17.44-8.81,26.25-13.35,31-20,2.77-3.86,7.92-12.54,8-27-27.66-12.48-43.76-11.9-53-5-7.93,5.93-9.33,15.44-14,15-6.7-.62-15-21.28-8-35,6.48-12.67,19.77-7.19,32-22,5.36-6.47,8.57-16.65,15-37,3.9-12.31,5.92-21.18,8-21,3.46.3.88,24.83,8,27,7.58,2.31,20.43-22.4,23-21,2.22,1.21-7.89,19.19-12,44-.4,2.42-6,37.6,3,41,5.86,2.21,16.42-9.51,22-19,9.82-16.66,3.17-24.56,12-40,9.75-17,25.91-21.52,24-27-2.25-6.5-25.23-.8-28-8-2-5.17,9.09-10.14,20-27,.34-.51.15-.44.47-1.37C401.24,21.58,408.81-.27,414.72,0Z" />
            <path class="color_beach cls-3"
                d="M398.86,638.25c-1.58,3.52-7.75,16.13-22,22-23.56,9.7-44.93-9-46-10-3.61-3.28-6.63-7.23-6-8,1-1.22,9.71,6.87,24,10a44.55,44.55,0,0,0,15,1,37.31,37.31,0,0,0,19-7,36.11,36.11,0,0,0,12-16" />
            <path class="color_beach cls-3"
                d="M400.11,713.25a57.28,57.28,0,0,1,20.5,17c3.76,5,10.41,13.74,10.25,25.49,0,.36-.15,8.07-2.05,8.5-2.48.56-5.22-11.87-10.25-21.85-4.23-8.38-12.2-19.23-28.7-27.92" />
            <path class="color_beach cls-3"
                d="M415.86,573.61a31.64,31.64,0,0,0,7.29,3.39,23.88,23.88,0,0,0,7.56,1.39,18.12,18.12,0,0,0,9.15-2,17.4,17.4,0,0,0,7-7.09c2.82-5.33,2.79-12.33,0-15a3.2,3.2,0,0,0-2-1c-1.78-.1-3.19,1.85-4,3a7.93,7.93,0,0,0-1.21,2.16s.17-.18.21-.16-1.34,4.45-4.74,8.13a26.6,26.6,0,0,1-3.66,3.27,4.36,4.36,0,0,1,.4-.4,28.19,28.19,0,0,1-11-2c-9.23-3.76-15.1-12.32-17-11-.74.51-1,3-1,3h0l1,4" />
            <path class="color_beach cls-3"
                d="M93.86,304.25c2.71-2.79,12.88-12.57,27-12,5,.2,8.48,1.62,14,4,8.86,3.81,26.19,11.28,38,29,7.72,11.59,7.17,18.69,13,20,9.82,2.21,19.27-16.13,23-14,3.15,1.79,1.39,17.66-9,25-7.72,5.45-17,4-22,3-16.26-3.26-26.05-14.84-27-16-7.5-9.13-4.5-12.93-14-24a51.92,51.92,0,0,0-15-12,42.93,42.93,0,0,0-8-3,28.48,28.48,0,0,0-7.15-1.11,25.66,25.66,0,0,0-7.85,1.11" />
            <path class="color_beach cls-3"
                d="M206.86,491.25a40.53,40.53,0,0,0,10,7c6.81,3.66,8,2.64,10,5,3.4,4,3.64,11.16,1,16-2,3.71-3.52,3.64-5,7-3.32,7.53,1.35,18.11,4,18s.31-10.81,8-24c2.17-3.72,4.65-6.81,5-12a20.77,20.77,0,0,0-2-10c-.93-2.1-3.79-8.55-10-11-4.84-1.91-6,.84-12-1-1.07-.33-8.66-2.78-11-9-1.23-3.28-.37-5.89-1-6-.94-.17-4.11,5.37-3,11C201.61,486.05,204,488.44,206.86,491.25Z" />
            <path class="color_beach cls-3"
                d="M204.86,659.25a48,48,0,0,1,25-11c3.81-.49,7.09-.9,11,0,8.46,2,12.57,8.41,13,8,.61-.58-6.79-14.5-20-17a26.39,26.39,0,0,0-9,0c-8.17,1.12-13.74,5-18,8a46.93,46.93,0,0,0-13,13c-4.9,7.52-7.71,17-6,18,.95.54,3.75-1.29,12-12" />
            <path class="color_beach cls-3"
                d="M252.86,760.25c-4.09,2-8,2.91-13,4a114.91,114.91,0,0,1-13,2c-9,.88-9.11-.1-12,1-7.08,2.68-9.57,11.38-11,16-1.15,3.7-2.58,10.3-1,11,2,.89,5.22-9.46,16-15a42.55,42.55,0,0,1,13-4c5.15-.68,6.42.19,11-1a31,31,0,0,0,9-4c2.69-1.7,2.24-2,9-8,4.65-4.17,5.37-5.84,6-7,1.61-3,3-7.37,2-8C267.36,746.32,263.27,755.13,252.86,760.25Z" />
            <path class="color_beach cls-3"
                d="M297.86,818.25a37.54,37.54,0,0,0,16,0,36.77,36.77,0,0,0,12-5,28.81,28.81,0,0,0,7-6c2.36-2.86,5.78-7,5-12-.41-2.64-2.11-6.31-5-7s-5.53,1.77-9,5c-6.32,5.87-5.75,8.81-10,11-1.7.87-5.13.91-12,1-7.59.09-10.48-.5-15,1a23.79,23.79,0,0,0-6,3" />
            <path class="color_beach cls-3"
                d="M354.86,746.25a42.41,42.41,0,0,1,15,2c5,1.66,7.18,3.5,11,3,4.33-.57,9.19-4,9-7-.3-4.8-13.47-9.52-25-9-6.17.27-6.93,1.83-15,2-8.93.19-14.3-1.59-15,0-.4.9.72,2.93,8,8" />
            <path class="color_beach cls-3"
                d="M474.86,615.25a41.5,41.5,0,0,0,10,10c3.61,2.63,8.95,6.52,17,8,3.31.6,6.54.38,13,0a39.39,39.39,0,0,0,11-2c3.32-1.15,5-2.28,6-4a8.6,8.6,0,0,0,1-4,14.06,14.06,0,0,0-2-8c-.35-.59-2.64-4.44-4-4-1.53.49.62,5.6-2,9-2.19,2.84-6.48,2.91-12,3a40.46,40.46,0,0,1-13-2,67.56,67.56,0,0,1-9-4,96.07,96.07,0,0,1-11-6c-6-3.92-8.19-6.61-9-6C469.83,606,472.21,611.32,474.86,615.25Z" />
            <path class="color_beach cls-3"
                d="M469.86,332.25a28.37,28.37,0,0,0,8,3c11.49,3.05,12,3.42,14,3a13,13,0,0,0,7-4c3.3-3.78,3.1-8.53,3-11-.05-1.15-.29-4.72-4-12s-8.39-13.37-9-13,1.36,4.13,5,15a18.65,18.65,0,0,1,1,7c-.11,2-.25,4.5-2,6-1.38,1.17-3.07,1.13-6,1a38.55,38.55,0,0,1-10-2c-3.85-1.22-7.55-2.81-8-3-1.65-.71-3.35-1.3-5-2-2.3-1-2.71-1.23-3-1-1,.8,1.15,6.24,5,10A20.54,20.54,0,0,0,469.86,332.25Z" />
            <path class="color_beach cls-3"
                d="M477.86,184.25a17.19,17.19,0,0,1,5,6c1.9,4,1.56,7.66,1,13-.76,7.17-2,6.87-2,11,0,8.79,5.5,13.6,4,15s-8.54-1.5-11-7c-1.4-3.12-.19-4.51,0-14,.12-6.07.16-9.17-1-12-1.5-3.68-3.79-5.93-7-9-6.25-6-11.41-7.94-11-9s5.33.15,9,1C471.18,180.71,474.45,181.5,477.86,184.25Z" />
            <path class="color_beach cls-3"
                d="M456.86,93.25c1.69-1.15,4.22-2.45,7-2,3.15.5,3.63,2.76,8,5a16.41,16.41,0,0,0,10,2c3.25-.52,7.15-2.44,7-4-.18-1.82-5.65-1-13-5-3.85-2.09-3.9-3.16-8-5-3.56-1.6-6.63-3-10-2-4.56,1.32-6.6,6.06-7,7-3.47,8.07,2.54,16.38,3,17" />
            <path class="color_beach cls-3"
                d="M423.86,6.25a11.07,11.07,0,0,1,4,5c1.21,3.22-.17,4.94,1,7,2.19,3.87,9.37,1.87,10,4,.68,2.32-6.59,9-13,7a9.28,9.28,0,0,1-6-6c-.48-1.81.22-2.28,0-6-.16-2.71-.67-3.3-1-6a29.16,29.16,0,0,1,0-7" />
            <path class="color_beach cls-3"
                d="M358.86,62.25c6.46,8.86,6.82,15,6,19-1.7,8.27-9.85,13.37-8,21,.62,2.58,1.71,2.62,2,5,1,8.33-11,17.81-14,16-1.85-1.12,1.36-6,3-21,.95-8.71.33-11.22,2-17a44.06,44.06,0,0,1,7-14" />
        </g>
    </g>
</svg>