<svg xmlns="http://www.w3.org/2000/svg" viewBox="0 0 779.65 827.9">
    <defs>
        <style>
            .cls-1{fill:#f2f2f2;}.cls-2{fill:#ccc;}.cls-3{fill:#e6e6e6;}.cls-4{fill:#666;}.cls-5{fill:#3693b7;}</style>
    </defs>
    <g id="Layer_2" data-name="Layer 2">
        <g id="Layer_1-2" data-name="Layer 1">
            <path class="color_island_shadow  cls-1"
                d="M418.4,2.82c6.37.29,6.77,26,15,27,5.35.63,7.74-9.87,15-10,6.05-.12,8,7.11,18,16,12.08,10.71,17.51,7.51,23,15,9.59,13.07,4.29,38.21-6,42-8.71,3.2-17.59-10.13-25-6-3.87,2.15-1.82,6-8,22-3.63,9.4-5.45,14.1-9.76,18.64-3.45,3.64-6.79,5.56-6.24,7.36.93,3,11.12-.12,14,4,3.69,5.25-10.21,14.23-9,25,1.77,15.74,33.63,15.55,40,36,3.85,12.32-5.07,20.92,1,28,7.15,8.32,22.23-.38,28,7,6.56,8.37-2.9,32.3-16,35-11.68,2.4-23.34-12.7-25-11s12.88,15.68,23,38c3.53,7.78,12,26.46,6,32-7.61,7-33.81-11.51-37-7-2.29,3.24,12,11.77,11,23-1.1,13.07-21.42,13.69-28,29-8.27,19.24,9.85,50.87,24,51,3.79,0,6.14-2.21,28-28,15.68-18.5,17.72-21.17,23-25,2.14-1.55,4.25-2.95,4.41-3.05a57.32,57.32,0,0,1,17-7.57c4.53-1.1,15.64-3.8,17.64-.38,3.55,6.07-27.72,21.73-25,40,1.84,12.32,16.81,16.67,15,23-2.91,10.18-43.11,3.72-46,14-1.6,5.72,10.26,9.83,16,26,2.71,7.6,5,20.63,0,24-6.44,4.32-16.92-12.62-36-13-12.78-.26-29.2,6.91-34,21-5.1,15,4.32,33.66,12,34,9.43.4,12-27.05,25-28,10.16-.75,21.94,15,19,22-2,4.71-9.67,2.84-13,8-4.66,7.22,4.17,20.55,9,28,24.4,37.55,36.59,56.32,33,62-5.48,8.66-44.43,3.8-63-20-14.87-19.07-13.21-45.87-20-46-4.59-.1-4.55,12.23-13,16-14.53,6.47-32.12-22.18-45-17-11.69,4.7-16.3,36-5,57,6.16,11.44,13.59,13.44,13,21a12.78,12.78,0,0,1-.5,2.56,18.14,18.14,0,0,1-1.82,4c-3.77,6.06-12.39,10.73-12.39,10.73A42.39,42.39,0,0,1,352.9,655c-15.88-3.34-20.78-11.57-24.5-10.14-8.09,3.11-6.48,48.45,15,64,7,5,19,5.1,36.73,6.71a56.51,56.51,0,0,1,24.27,7.29s1.08.63,2.14,1.32c12.3,8,28,29.24,23.86,34.68-4.31,5.61-24.68-12.28-63-17-15.1-1.86-45.55-5.62-55,10-5.77,9.54-3.35,25.74,5,33,7.34,6.37,17.11,4,18,8s-8.28,11-18,14c-13.77,4.21-19.6-2.21-30,3-8.95,4.48-6.92,10.4-14,13-13.67,5-25.28-15.62-41-12-12.57,2.88-15,18.34-20,17-7.46-2-11.4-39.16,5-51,9.49-6.85,18.09.31,34-7,13.38-6.15,24.56-19.15,22-25-2.69-6.17-18.44.63-43-6-11.3-3.06-29.54-8-33-21s8.55-30.22,22-34c11.76-3.31,19,5.32,29,0a21.83,21.83,0,0,0,11-19c-.18-11.37-10.56-19.43-19-22a25.15,25.15,0,0,0-5.68-1c-9.76-.75-18,3.7-24.32,8-19.89,13.68-19.44,25.79-29,27-13,1.63-31.25-17.5-29-32,2.08-13.38,19.89-11.74,37-35,10.32-14,7.27-19.29,17-27,15.23-12.08,32-6.59,35-15,2.86-8.08-12.46-13.56-13-29-.47-13.58,11.08-17.6,8-29-2.67-9.92-14.13-16.95-15.62-17.87-5-3.06-5.81-2-8.38-4.13-11.18-9.26-.17-32.95-6-36-5.51-2.9-25.84,12.87-28,33-1.54,14.42,7.19,22.17,3,27-5.55,6.39-21.89-6.13-51-6-11.22,0-26.85.11-32,9-5.55,9.58,7,19.3,3,35-3.43,13.6-17.71,25.62-25,23-11.65-4.19,4.78-42.1-16-66-13-15-27.71-9.49-41-21-13-11.24-22.92-37.26-5-104,8.1-7.47,19.34-17.75,33-30,14.17-12.71,18.48-16.36,26-18,14.67-3.21,25.29,4.74,29,0,4.47-5.71-9.83-18.57-5-27,4.63-8.08,23-5.55,27-5a55.62,55.62,0,0,1,23,9c6.24,4,10.41,8.29,15,13,6.46,6.62,6.91,8.49,12,14,8.82,9.52,16.76,18.12,24,17,7.77-1.21,6.93-12.38,20-30a97.45,97.45,0,0,1,25-24c16.91-10.94,29.54-10.27,30-16,.37-4.52-7.33-6.6-21-17-9.06-6.91-26.4-20.11-24-28,2.55-8.37,24.86-2.77,30-13,6.23-12.41-20.56-32.51-15-41,3.71-5.66,20.88-4.85,30,4,10.63,10.29,4.37,25.69,13,30,1.86.92,5,1.62,26-9,17.43-8.82,26.25-13.36,31-20,2.77-3.87,7.92-12.55,8-27-27.66-12.49-43.76-11.91-53-5-7.93,5.93-9.33,15.43-14,15-6.7-.63-15-21.28-8-35,6.48-12.67,19.76-7.2,32-22,5.36-6.48,8.57-16.65,15-37,3.89-12.32,5.92-21.19,8-21,3.45.3.88,24.83,8,27,7.58,2.3,20.43-22.4,23-21,2.22,1.2-7.89,19.18-12,44-.4,2.42-6,37.6,3,41,5.86,2.2,16.42-9.51,22-19,9.81-16.67,3.17-24.57,12-40,9.75-17,25.91-21.53,24-27-2.26-6.5-25.23-.81-28-8-2-5.17,9.09-10.15,20-27,.34-.52.15-.45.47-1.38C404.92,24.4,412.49,2.55,418.4,2.82Z" />
            <path class="color_islet_beach cls-2"
                d="M543.54,50.06c11.67-4.59,19.58,7.13,32,3,8-2.65,12.69-10.12,14-9,.65.56-.52,2.47-1.85,6.46-2,5.84-3.7,11.12-2.15,14.54,2.07,4.56,8.42,2.29,18,7,.82.4,16.38,8.24,15,17-.8,5.06-7.2,10-12,9-6.34-1.26-5.93-11.9-14-15-3.75-1.44-6,0-12,1-1.55.25-21.34,3.2-36-7-2.73-1.9-11.94-8.31-11-16C534.15,56,539,51.85,543.54,50.06Z" />
            <path class="color_islet_beach  cls-3"
                d="M713.86,77.63c19.19-11.4,48.38-4.4,59.68,13.43,6.51,10.28,9.09,27.35,1.29,33.41-5.88,4.56-17.16,2.59-20.06-2.19-3.17-5.19,2.62-12.3-1-16-2.14-2.18-4.09.27-9.75-1.86-7.71-2.89-12.54-10.59-13.37-12.52a1.87,1.87,0,0,0-.16-.3c-1.35-2-7.48-1.54-9.83.72-4.44,4.26,4.78,14.68.87,21.19-4,6.77-21.3,7.66-26.34.72C689.4,106.28,699.23,86.31,713.86,77.63Z" />
            <path class="color_islet_beach cls-2"
                d="M539.34,237.33c2.3,1.65,10.08-12.87,20.18-13.45,11.61-.68,14.64,17.72,29.78,23.05,17.23,6.07,43.57-7.11,45.16-21.13,1.95-17.24-33.22-38-48-30.75-4.34,2.13-9.66,7.55-12.49,5.77-2.55-1.61-.49-7.46-3.84-9.61a5.92,5.92,0,0,0-5.77,0c-5.37,3.07.28,13.57-4.8,20.18-6.35,8.25-24.24,3.64-25,7.68-.33,1.77,3.13,2.47,4.8,6.73C541.54,231.41,537.94,236.32,539.34,237.33Z" />
            <path class="color_islet_beach  cls-2"
                d="M608.54,516.06c-4.41-1-8.73,3.6-11,6a31.37,31.37,0,0,0-7,12c-4.8,14.72,2.05,20-3,29-3.58,6.37-8,5.53-11,13-1.49,3.72-3.26,11.11,0,14s8.31-2.13,23-5c11.75-2.3,17.43-.77,23-6,3-2.81,5-6.68,4-8-1.27-1.69-6.29,2.16-12,0-2.85-1.09-4.52-3.16-6-5a25.79,25.79,0,0,1-5-12c-1.59-14.43,14.48-21.93,11-32C613.59,519.33,611.3,516.66,608.54,516.06Z" />
            <path class="color_islet_beach cls-2"
                d="M505.54,639.06c-.12,3.66-7.93,3.29-12,10-2.91,4.78-3.06,11.78,0,15,.72.75.93.58,3,2,3.06,2.09,7.24,5,7,7-.46,3.85-16.87,5.92-18,3-.57-1.45,3-3.1,3-7a8.62,8.62,0,0,0-2-5c-2.72-3.76-5.65-3.4-8-6-3.45-3.83-2.17-10.15-2-11,1.9-9.4,13.55-16.37,22-14C501.64,633.92,505.63,636.41,505.54,639.06Z" />
            <path class="color_islet_beach cls-2"
                d="M483.54,715.06c-2.62,4,3.08,10.92,0,14-1.16,1.15-3.06,1.27-3,2s2.2.63,4,2c2.34,1.78,1.73,4.33,3,6,3.36,4.41,18.91,1.4,20-4,.84-4.17-7.61-6.13-10-16-.5-2.06-.55-3.68-2-5C492.53,711.33,485.65,711.81,483.54,715.06Z" />
            <path class="color_islet_beach cls-2"
                d="M508.54,732.06c-1.86,2.49-.39,6.84,2,9,4.61,4.17,14.11,1.5,15-2,.7-2.77-3.81-6.68-8-8C516.82,730.83,510.86,728.94,508.54,732.06Z" />
            <path class="color_islet_beach cls-2"
                d="M155.54,821.06c-.46,3.25-6.37,6.14-11,5s-6.59-5.81-8-9c-4.24-9.63.11-14.84-4-19-3.91-4-9.75-1.2-13-6-1.15-1.7-2.15-4.6-1-6,2.51-3.09,16,.27,21,9,2.46,4.26.57,5.72,3,11C147,815.71,156.14,816.82,155.54,821.06Z" />
            <path class="color_islet_beach cls-2"
                d="M141.28,523.57a13.4,13.4,0,0,1,7.48-1.41c4.8.42,9.83,3.41,11.61,7.69,1.5,3.6-.19,6-5.3,19.31s-4.53,13.84-6.82,16.93c-3.73,5-12.84,14-19.84,11s-8.9-16.8-4.68-20.5c2.31-2,5.35-.07,7.7-2.39,2.56-2.53.27-6.13.86-13.13C132.51,538.43,133.79,527.57,141.28,523.57Z" />
            <path class="color_islet_beach cls-2"
                d="M37.54,162.06c7.88-5.59,20.12-6.92,25-2,2.34,2.36,2.79,6,7,8,2.74,1.32,4,.47,6,2,2.87,2.17,2.09,5.2,4,9,3.25,6.46,9.76,6.08,10,9,.53,6.51-31.69,13-31,19,.2,1.78,3.13,1.7,6,6a20.32,20.32,0,0,1,3,9c.87,6.15-.93,7.4,0,11,1.46,5.7,7.56,8.77,10,10,9.19,4.62,14.3.19,21,5,4.43,3.18,7.45,8.89,6,11-2.52,3.64-16.31-6.58-24-1-5.17,3.74-6.07,13.51-3,16,2,1.61,4.67-.67,7,1,3.32,2.38,3.64,11.18-1,15-5,4.14-14,.81-17-4-2.75-4.4-.68-10.72-2-11-1.11-.25-2.49,4.22-4,4-1.17-.17-1.26-2.94-2-5-2.4-6.68-11.52-5.86-19-12-5.1-4.2-10.13-12.2-8-17,3.27-7.39,22.22-4.39,23-9,.52-3.09-7.94-4.72-9-11-1-5.69,5.29-8.3,4-13s-8-3.9-15-11a27,27,0,0,1-6-9C25.11,183,27.42,169.23,37.54,162.06Z" />
            <path class="color_island cls-4"
                d="M413.72,0c6.37.29,6.77,26,15,27,5.35.64,7.75-9.86,15-10,6.06-.11,8,7.12,18,16,12.08,10.72,17.51,7.52,23,15,9.6,13.08,4.29,38.21-6,42-8.7,3.21-17.59-10.12-25-6-3.87,2.16-1.82,6-8,22-3.63,9.4-5.45,14.11-9.76,18.64-3.45,3.64-6.79,5.56-6.24,7.36.94,3,11.12-.11,14,4,3.69,5.25-10.21,14.24-9,25,1.78,15.74,33.63,15.56,40,36,3.85,12.33-5.07,20.93,1,28,7.15,8.32,22.23-.38,28,7,6.56,8.38-2.9,32.31-16,35-11.67,2.4-23.34-12.69-25-11s12.89,15.69,23,38c3.53,7.78,12,26.47,6,32-7.61,7-33.8-11.51-37-7-2.29,3.24,11.95,11.77,11,23-1.1,13.07-21.42,13.7-28,29-8.27,19.25,9.85,50.88,24,51,3.8,0,6.14-2.2,28-28,15.68-18.49,17.72-21.16,23-25,2.14-1.55,4.26-2.94,4.42-3a56.85,56.85,0,0,1,16.94-7.57c4.53-1.1,15.64-3.81,17.64-.39,3.56,6.07-27.72,21.73-25,40,1.84,12.32,16.81,16.68,15,23-2.91,10.19-43.11,3.72-46,14-1.6,5.72,10.26,9.83,16,26,2.71,7.61,5,20.63,0,24-6.44,4.32-16.91-12.61-36-13-12.78-.25-29.2,6.92-34,21-5.1,15,4.33,33.67,12,34,9.43.41,12-27,25-28,10.16-.75,21.94,15,19,22-2,4.72-9.66,2.85-13,8-4.66,7.22,4.17,20.56,9,28,24.4,37.55,36.59,56.33,33,62-5.47,8.66-44.43,3.81-63-20-14.86-19.06-13.21-45.86-20-46-4.59-.09-4.54,12.24-13,16-14.53,6.48-32.11-22.18-45-17-11.68,4.7-16.3,36-5,57,6.16,11.45,13.59,13.45,13,21a12.78,12.78,0,0,1-.5,2.57,18,18,0,0,1-1.82,4c-3.77,6.06-12.38,10.73-12.38,10.73a44.35,44.35,0,0,1-25.3,5.69,41.46,41.46,0,0,1-5.5-.86c-15.87-3.33-20.78-11.57-24.5-10.14-8.09,3.12-6.48,48.46,15,64,7,5,18.95,5.11,36.73,6.72A56.45,56.45,0,0,1,399.72,720s1.08.63,2.14,1.32c12.31,8,28.05,29.24,23.86,34.68-4.31,5.61-24.68-12.28-63-17-15.09-1.86-45.55-5.61-55,10-5.77,9.55-3.34,25.75,5,33,7.34,6.38,17.11,4,18,8s-8.28,11-18,14c-13.77,4.22-19.6-2.2-30,3-9,4.49-6.92,10.41-14,13-13.67,5-25.28-15.61-41-12-12.57,2.89-15,18.34-20,17-7.46-2-11.4-39.16,5-51,9.49-6.84,18.09.32,34-7,13.39-6.15,24.56-19.14,22-25-2.69-6.17-18.44.64-43-6-11.3-3-29.53-8-33-21s8.55-30.21,22-34c11.76-3.3,19,5.33,29,0,6.66-3.53,11.12-11.39,11-19-.17-11.36-10.56-19.42-19-22a25.48,25.48,0,0,0-5.68-1c-9.75-.75-18,3.69-24.32,8-19.89,13.69-19.43,25.8-29,27-13,1.64-31.24-17.5-29-32,2.08-13.37,19.89-11.73,37-35,10.33-14,7.28-19.28,17-27,15.23-12.07,32-6.59,35-15,2.86-8.07-12.46-13.56-13-29-.47-13.57,11.08-17.6,8-29-2.67-9.91-14.12-16.95-15.62-17.87-5-3.05-5.8-2-8.38-4.13-11.18-9.25-.17-32.94-6-36-5.51-2.89-25.84,12.88-28,33-1.54,14.42,7.19,22.18,3,27-5.55,6.4-21.89-6.12-51-6-11.21.05-26.84.12-32,9-5.55,9.59,7,19.3,3,35-3.43,13.61-17.71,25.62-25,23-11.64-4.19,4.78-42.09-16-66-13-15-27.71-9.48-41-21-13-11.24-22.92-37.25-5-104,8.1-7.46,19.34-17.74,33-30,14.17-12.7,18.48-16.35,26-18,14.67-3.21,25.29,4.74,29,0,4.48-5.7-9.83-18.56-5-27,4.63-8.08,23-5.54,27-5a55.9,55.9,0,0,1,23,9c6.24,4,10.41,8.3,15,13,6.46,6.62,6.92,8.5,12,14,8.82,9.53,16.77,18.12,24,17,7.77-1.2,6.93-12.37,20-30a97.62,97.62,0,0,1,25-24c16.91-10.93,29.54-10.27,30-16,.37-4.51-7.33-6.59-21-17-9.06-6.9-26.4-20.11-24-28,2.55-8.36,24.86-2.76,30-13,6.24-12.4-20.56-32.5-15-41,3.71-5.65,20.88-4.84,30,4,10.63,10.3,4.37,25.7,13,30,1.86.93,5,1.63,26-9,17.44-8.81,26.25-13.35,31-20,2.77-3.86,7.92-12.54,8-27-27.66-12.48-43.76-11.9-53-5-7.93,5.93-9.33,15.44-14,15-6.7-.62-15-21.28-8-35,6.48-12.67,19.77-7.19,32-22,5.36-6.47,8.57-16.65,15-37,3.9-12.31,5.92-21.18,8-21,3.46.3.88,24.83,8,27,7.58,2.31,20.43-22.4,23-21,2.22,1.21-7.89,19.19-12,44-.4,2.42-6,37.6,3,41,5.86,2.21,16.42-9.51,22-19,9.82-16.66,3.17-24.56,12-40,9.75-17,25.91-21.52,24-27-2.25-6.5-25.23-.8-28-8-2-5.17,9.09-10.14,20-27,.34-.51.15-.44.47-1.37C400.24,21.58,407.81-.27,413.72,0Z" />
            <path class="color_islets cls-5"
                d="M711.09,74.61c19.19-11.39,48.38-4.4,59.68,13.43,6.51,10.28,9.09,27.35,1.29,33.41C766.19,126,754.9,124,752,119.27c-3.17-5.2,2.63-12.31-1-16-2.14-2.17-4.09.27-9.75-1.85-7.71-2.9-12.54-10.59-13.37-12.52a1.28,1.28,0,0,0-.16-.3c-1.35-2-7.47-1.54-9.83.72-4.44,4.26,4.78,14.68.88,21.19-4.06,6.77-21.31,7.65-26.35.71C686.63,103.27,696.47,83.29,711.09,74.61Z" />
            <path class="color_islets cls-5"
                d="M541,47.27c11.67-4.58,19.59,7.14,32,3,7.95-2.64,12.7-10.11,14-9,.65.57-.52,2.47-1.85,6.47-2,5.84-3.7,11.12-2.15,14.53,2.07,4.56,8.42,2.3,18,7,.82.41,16.38,8.24,15,17-.8,5.07-7.2,10-12,9-6.34-1.25-5.92-11.89-14-15-3.75-1.44-6,0-12,1-1.55.25-21.34,3.21-36-7-2.72-1.89-11.94-8.31-11-16C531.59,53.23,536.4,49.07,541,47.27Z" />
            <path class="color_islets cls-5"
                d="M536.85,232.82c2.39,1.72,10.48-13.39,21-14,12.08-.7,15.24,18.45,31,24,17.93,6.31,45.34-7.4,47-22,2-17.94-34.58-39.57-50-32-4.52,2.22-10.06,7.86-13,6-2.66-1.67-.52-7.76-4-10a6.16,6.16,0,0,0-6,0c-5.6,3.2.28,14.13-5,21-6.61,8.59-25.23,3.79-26,8-.35,1.84,3.26,2.57,5,7C539.14,226.66,535.38,231.77,536.85,232.82Z" />
            <path class="color_islets cls-5"
                d="M606.82,513.75c-4.4-1-8.73,3.6-11,6a31.58,31.58,0,0,0-7,12c-4.8,14.72,2,20-3,29-3.57,6.37-8,5.54-11,13-1.49,3.72-3.26,11.11,0,14s8.31-2.13,23-5c11.76-2.3,17.44-.77,23-6,3-2.81,5-6.67,4-8-1.26-1.69-6.29,2.17-12,0-2.85-1.08-4.51-3.15-6-5a26,26,0,0,1-5-12c-1.58-14.43,14.49-21.93,11-32C611.88,517,609.59,514.35,606.82,513.75Z" />
            <path class="color_islets cls-5"
                d="M502.87,637c-.12,3.66-7.93,3.3-12,10-2.9,4.79-3.06,11.79,0,15,.72.76.93.58,3,2,3.06,2.1,7.24,5,7,7-.45,3.86-16.86,5.92-18,3-.56-1.45,3-3.09,3-7a8.65,8.65,0,0,0-2-5c-2.72-3.76-5.64-3.39-8-6-3.45-3.82-2.17-10.15-2-11,1.9-9.39,13.55-16.36,22-14C499,631.84,503,634.33,502.87,637Z" />
            <path class="color_islets cls-5"
                d="M482.53,711.35c-2.62,4,3.08,10.93,0,14-1.16,1.16-3.06,1.28-3,2s2.2.63,4,2c2.34,1.79,1.73,4.34,3,6,3.36,4.41,18.91,1.41,20-4,.84-4.16-7.61-6.12-10-16-.5-2.05-.55-3.67-2-5C491.53,707.63,484.64,708.11,482.53,711.35Z" />
            <path class="color_islets cls-5"
                d="M506.53,729.35c-1.86,2.5-.39,6.84,2,9,4.61,4.18,14.11,1.51,15-2,.7-2.76-3.81-6.67-8-8C514.81,728.13,508.85,726.24,506.53,729.35Z" />
            <path class="color_islets cls-5"
                d="M154.12,822.55c-.45,3.25-6.36,6.15-11,5s-6.59-5.8-8-9c-4.23-9.62.12-14.83-4-19-3.9-3.95-9.74-1.19-13-6-1.15-1.7-2.14-4.59-1-6,2.52-3.09,16,.28,21,9,2.47,4.26.57,5.73,3,11C145.58,817.21,154.72,818.32,154.12,822.55Z" />
            <path class="color_islets cls-5"
                d="M138.94,520.2a13.53,13.53,0,0,1,7.48-1.42c4.8.43,9.83,3.41,11.61,7.7,1.5,3.6-.19,6-5.3,19.31s-4.54,13.84-6.82,16.92c-3.73,5-12.85,14-19.84,11s-8.9-16.8-4.68-20.49c2.31-2,5.35-.07,7.7-2.39,2.55-2.53.27-6.13.86-13.13C130.17,535.06,131.45,524.19,138.94,520.2Z" />
            <path class="color_islets cls-5"
                d="M34.34,159.41c7.88-5.59,20.12-6.92,25-2,2.34,2.36,2.79,6,7,8,2.74,1.32,4,.47,6,2,2.87,2.18,2.09,5.21,4,9,3.25,6.46,9.76,6.09,10,9,.53,6.52-31.69,13-31,19,.2,1.79,3.13,1.71,6,6a20.36,20.36,0,0,1,3,9c.87,6.15-.93,7.4,0,11,1.46,5.7,7.56,8.77,10,10,9.19,4.63,14.3.19,21,5,4.43,3.18,7.45,8.89,6,11-2.52,3.65-16.31-6.58-24-1-5.17,3.75-6.07,13.52-3,16,2,1.61,4.67-.67,7,1,3.32,2.38,3.64,11.19-1,15-5,4.14-14,.81-17-4-2.75-4.4-.68-10.71-2-11-1.11-.24-2.49,4.22-4,4-1.17-.17-1.26-2.94-2-5-2.4-6.68-11.52-5.85-19-12-5.1-4.19-10.13-12.2-8-17,3.27-7.39,22.22-4.39,23-9,.52-3.09-7.94-4.71-9-11-1-5.69,5.29-8.3,4-13s-8-3.89-15-11a27,27,0,0,1-6-9C21.91,180.35,24.22,166.59,34.34,159.41Z" />
        </g>
    </g>
</svg>