<?xml version="1.0" encoding="UTF-8"?>
<svg version="1.1" xmlns="http://www.w3.org/2000/svg" width="598" height="904">
<path d="M0 0 C11.59575165 -0.68546315 11.59575165 -0.68546315 16.1875 1.4375 C19.25699585 4.23415178 19.35875175 4.52414119 19.625 8.375 C19.66947266 9.550625 19.66947266 9.550625 19.71484375 10.75 C20.21670078 14.70985819 22.11227895 16.30479368 25 19 C30.58235008 23.18676256 37.3329612 22.71811434 44 22 C49.05064703 20.6247833 51.91900617 18.30202072 55.0625 14.1875 C56.515625 12.375 56.515625 12.375 58 11 C64.34315314 10.40158933 69.25569584 14.14248166 74 18 C75.86815212 19.92016564 77.40402772 21.83771498 79 24 C78.67 24.66 78.34 25.32 78 26 C77.34 26 76.68 26 76 26 C77.49754151 28.99508301 79.94642612 29.08318337 82.93359375 30.16796875 C87.5420891 32.02356328 89.56536212 34.08243115 91.6875 38.5625 C93.3575753 43.58221495 94.18508725 48.78455838 95 54 C94.278125 54.45375 93.55625 54.9075 92.8125 55.375 C86.60630892 61.16744501 84.34801568 69.45194459 82.08984375 77.43359375 C80.82312212 80.41651887 79.80325661 81.42285019 77 83 C73.99580008 83.91218434 71.13336385 84.20816054 68 84 C65.95708818 82.73339467 63.95309888 81.40113616 62 80 C58.24870163 79.66475124 58.24870163 79.66475124 55 80 C51.82515633 86.6257607 49.97465522 92.4181394 52.1875 99.625 C53.24978967 102.49071168 54.48225992 104.88661326 56.25 107.375 C57.11625 108.674375 57.11625 108.674375 58 110 C57.67 110.99 57.34 111.98 57 113 C54.55206504 112.56286876 53.19564746 112.17390885 51.3125 110.5 C47.80548054 108.22517656 44.10347788 108.25427534 40 108 C41.27624119 111.63473078 41.27624119 111.63473078 43.625 114.625 C44.07875 115.07875 44.5325 115.5325 45 116 C45 116.99 45 117.98 45 119 C43.515 119.495 43.515 119.495 42 120 C40.96792575 122.39481702 40.96792575 122.39481702 40.1875 125.25 C38.38414425 130.639098 36.62210754 132.81588147 32 136 C30.34354072 139.31291856 30.23565982 142.44734683 31 146 C32.59271531 148.37839793 34.39406659 150.47070918 36.25 152.6484375 C39.47222527 156.9783027 40.51543112 162.02117657 41.37109375 167.28125 C42.52498527 174.03805805 45.71441303 178.71221563 50 184 C50.46277344 184.5775 50.92554688 185.155 51.40234375 185.75 C53.61495404 187.48113764 55.33779578 187.4153774 58.125 187.625 C66.31501517 188.78076856 72.87472642 192.81675133 79.94335938 196.87011719 C82.70988547 198.38999881 85.56347171 199.70215753 88.44238281 200.99462891 C90 202 90 202 91 205 C90.32453125 205.18175781 89.6490625 205.36351562 88.953125 205.55078125 C88.06109375 205.80214844 87.1690625 206.05351562 86.25 206.3125 C85.36828125 206.55613281 84.4865625 206.79976562 83.578125 207.05078125 C80.31364614 208.25270301 77.73728791 209.62372924 76.0625 212.75 C75.88036373 219.30690575 81.10307818 226.06900556 85 231 C89.74641253 235.09917446 95.07467973 236.37964543 101 238 C103.00342734 238.65629516 105.00531118 239.31760646 107 240 C106.84152588 240.72469482 106.68305176 241.44938965 106.51977539 242.19604492 C106.03901777 244.78951662 105.80242678 247.2319784 105.68359375 249.86328125 C105.62075195 251.19262695 105.62075195 251.19262695 105.55664062 252.54882812 C105.49766602 253.9168457 105.49766602 253.9168457 105.4375 255.3125 C105.39431641 256.24384766 105.35113281 257.17519531 105.30664062 258.13476562 C105.20102775 260.42304454 105.09892248 262.71142372 105 265 C103.03873698 264.9613444 101.07747396 264.9226888 99.11621094 264.8840332 C94.46778643 265.13876343 91.0316718 266.99698575 87.75 270.1875 C84.22620177 275.85074715 82.15468851 281.23750807 83 288 C84.53961619 292.17186323 86.74190355 295.73548817 89.4375 299.25 C95.89030872 308.02742304 98.06103747 316.64406794 96.53515625 327.22265625 C96.06483279 330.15788662 95.55346996 333.07945762 95 336 C90.41140933 335.71321308 87.68941742 334.99287964 83.875 332.375 C80.77847264 330.23134496 80.77847264 330.23134496 77 330.1875 C76.34 330.455625 75.68 330.72375 75 331 C75 332.65 75 334.3 75 336 C76.423125 336.309375 76.423125 336.309375 77.875 336.625 C79.421875 337.305625 79.421875 337.305625 81 338 C81.28875 338.94875 81.5775 339.8975 81.875 340.875 C82.62225385 344.07747113 82.62225385 344.07747113 84.85546875 344.9296875 C85.58378906 345.20039063 86.31210937 345.47109375 87.0625 345.75 C89.22265625 346.65625 89.22265625 346.65625 91 348 C92.01139235 351.34659668 92.10624417 354.52050336 92 358 C90.85402344 358.03738281 89.70804688 358.07476562 88.52734375 358.11328125 C86.99736554 358.17898584 85.46741903 358.24543159 83.9375 358.3125 C83.18533203 358.33505859 82.43316406 358.35761719 81.65820312 358.38085938 C76.54829252 358.62418845 72.52498388 359.40242663 68 362 C64.77763245 365.95778593 62.91953162 370.28850222 60.875 374.9375 C58.08188899 380.96088408 54.88255383 384.2860998 49.0390625 387.47265625 C46.74664768 388.87212552 46.74664768 388.87212552 46.2109375 391.68359375 C46.14132812 392.44800781 46.07171875 393.21242188 46 394 C46.94875 394.721875 47.8975 395.44375 48.875 396.1875 C52.52988272 399.30424048 55.40252768 402.83101898 58.3125 406.625 C58.74481934 407.18727295 59.17713867 407.7495459 59.62255859 408.32885742 C61.71441793 411.10688943 63.59287247 413.81258406 65 417 C75.01323218 416.34270442 75.01323218 416.34270442 83.57421875 411.57421875 C87.31052688 407.25979991 88.39002502 403.67176984 88.265625 397.98046875 C87.57283693 392.81512242 83.10035829 390.25938839 79.25 387.3125 C78.45078125 386.73113281 77.6515625 386.14976562 76.828125 385.55078125 C76.22484375 385.03902344 75.6215625 384.52726562 75 384 C75 383.34 75 382.68 75 382 C77.99567303 381.61167202 80.99284833 381.286172 84 381 C84.69222656 380.93167969 85.38445313 380.86335938 86.09765625 380.79296875 C91.44484019 380.50594297 95.89595089 381.54061347 100 385 C101.76239941 387.87627544 102.95982861 390.79736702 104 394 C106.92438751 393.58223036 108.76605031 393.16806012 111.19140625 391.42578125 C114.86844462 389.55913451 117.80033598 390.01569485 121.75 390.5 C127.76837923 391.05603845 133.76601989 391.53612803 139 388 C139.71715037 386.6931268 140.37353985 385.35268988 141 384 C142.46965925 381.88325197 143.95679804 379.81088952 145.5 377.75 C145.90347656 377.19570313 146.30695312 376.64140625 146.72265625 376.0703125 C147.76450171 374.67430835 148.87745412 373.33197608 150 372 C150.66 372 151.32 372 152 372 C152.28875 371.360625 152.5775 370.72125 152.875 370.0625 C154 368 154 368 156 367 C156 370.96 156 374.92 156 379 C155.10925781 379.30550781 154.21851563 379.61101562 153.30078125 379.92578125 C148.68833501 382.82425339 147.34789402 386.31266943 145.1875 391.1875 C144.79369141 392.01314453 144.39988281 392.83878906 143.99414062 393.68945312 C141.61842622 398.86060505 140.39945442 403.32250853 140 409 C139.37351562 409.06058594 138.74703125 409.12117188 138.1015625 409.18359375 C136.87566406 409.30927734 136.87566406 409.30927734 135.625 409.4375 C134.81289063 409.51871094 134.00078125 409.59992188 133.1640625 409.68359375 C130.95727195 409.89090114 130.95727195 409.89090114 129 411 C128.25292815 417.04277106 130.67123446 420.29009837 133.9375 425.0625 C140.31225676 434.50625932 140.31225676 434.50625932 139.79296875 440.31640625 C138.79734309 444.00985627 138.09187157 446.32254762 134.74609375 448.3984375 C132.18823756 449.41243116 129.63923048 450.2258792 127 451 C126.16082031 451.34933594 125.32164062 451.69867188 124.45703125 452.05859375 C120.57977432 453.54415642 117.05273013 454.1013636 113 453 C111.17926649 451.08545821 109.8873613 449.08218781 108.484375 446.84765625 C106.73617224 444.67160386 105.85105052 444.34348237 103.125 444 C102.09375 444 101.0625 444 100 444 C100.38448306 446.76827804 100.6541963 448.58095638 102.45703125 450.765625 C104.43676402 453.63247853 104.78111599 456.07552595 105.375 459.5 C107.76768658 471.2326662 111.73826328 479.43157925 119.6953125 488.2109375 C125.1455246 494.80661791 126.40078709 500.71706683 126 509 C122.22851899 512.77148101 117.64151796 512.21634957 112.5 512.3125 C111.1903125 512.34988281 109.880625 512.38726563 108.53125 512.42578125 C105 512 105 512 102.70703125 510.34765625 C100.78969879 507.71077568 99.50391348 505.10684726 98.1875 502.125 C95.27658592 496.05874394 92.14380144 492.07190072 86 489 C81.13012962 488.54429984 78.71805615 489.40154441 74.75 492.1875 C69.67423044 495.60812731 64.49354044 498.32797183 59 501 C53.29131858 503.78596455 53.29131858 503.78596455 50 509 C48.6081952 516.62413425 50.39018885 523.06382176 53.25 530.0625 C53.54962646 530.80072998 53.84925293 531.53895996 54.15795898 532.29956055 C55.81974315 536.1112146 57.13727258 539.0262311 61 541 C64.08995097 541.08223366 64.08995097 541.08223366 67 540 C69.72791515 537.06532356 70.54809434 534.43392195 71.375 530.5625 C72.6484058 525.54260031 73.86276372 523.10292721 78 520 C81.34890621 518.88369793 83.97539261 518.83234576 87.5 518.8125 C88.6446875 518.79832031 89.789375 518.78414062 90.96875 518.76953125 C94 519 94 519 97 521 C97.43237305 523.52197266 97.43237305 523.52197266 97.51171875 526.6640625 C97.54716797 527.78554688 97.58261719 528.90703125 97.61914062 530.0625 C97.65297852 531.8259375 97.65297852 531.8259375 97.6875 533.625 C97.73874023 535.40003906 97.73874023 535.40003906 97.79101562 537.2109375 C97.87370575 540.1405306 97.94278714 543.0698164 98 546 C97.38511719 546.03738281 96.77023437 546.07476563 96.13671875 546.11328125 C95.32847656 546.17902344 94.52023437 546.24476563 93.6875 546.3125 C92.88699219 546.37050781 92.08648438 546.42851563 91.26171875 546.48828125 C88.58369853 547.09418911 87.60249592 547.78876374 86 550 C86.05567489 552.89509406 86.39337515 555.18708889 87 558 C87.25007812 559.19238281 87.50015625 560.38476562 87.7578125 561.61328125 C89.42504226 568.94945884 91.13467776 574.94183219 97 580 C97.64453125 580.5671875 98.2890625 581.134375 98.953125 581.71875 C100.24397941 582.84208896 101.54962287 583.94885867 102.875 585.03125 C108.2002591 589.96494593 112.04040283 595.29701661 115.3125 601.75 C115.68930908 602.47662842 116.06611816 603.20325684 116.4543457 603.9519043 C120.11632491 611.08089096 123.52919251 618.32807296 126.91796875 625.58984375 C129.12713254 630.30928268 131.48474495 634.9403751 133.90625 639.5546875 C136.38176475 645.0892312 136.55523211 651.02646837 136 657 C134.64167808 660.3958048 133.02415153 662.9637727 131 666 C127.625 666.5 127.625 666.5 124 666 C121.02942343 663.29153313 119.4485724 659.99770082 117.5625 656.5 C113.22093303 648.6145636 108.32308621 645.80418663 100 643 C95.4049714 641.80705002 90.77458628 640.83018675 86.125 639.875 C83.73075399 639.37726229 81.3374723 638.87485697 78.9453125 638.3671875 C77.89875488 638.15175293 76.85219727 637.93631836 75.77392578 637.71435547 C73.2626345 637.06763497 71.25154646 636.2645117 69 635 C69.2165625 634.36835937 69.433125 633.73671875 69.65625 633.0859375 C73.36622421 621.16592778 73.29029179 610.35477263 68 599 C67.4946875 597.906875 66.989375 596.81375 66.46875 595.6875 C64.200582 589.98031257 64.200582 589.98031257 60 586 C57.53121286 587.24486721 55.26990559 588.53497954 52.9375 590 C51.96200195 590.56267578 51.96200195 590.56267578 50.96679688 591.13671875 C47.48903463 593.31529614 46.20493807 594.34990342 44.93359375 598.3828125 C45.00599625 602.32661909 45.79046437 605.17355211 47.125 608.875 C48.77330633 614.27778187 49.57090765 617.76746461 47.15625 622.95703125 C46.7746875 623.63121094 46.393125 624.30539062 46 625 C45.6390625 625.76699219 45.278125 626.53398438 44.90625 627.32421875 C43.46790211 629.83694235 42.3716796 631.32247053 40 633 C34.27923938 634.02030786 28.91912498 634.27941665 24 631 C22.7684662 627.30539859 22.41017443 623.84162704 23 620 C24.9375 617.625 24.9375 617.625 27 616 C28.56820874 612.86358252 28.38163039 609.42820517 28 606 C26.56392597 601.69673178 23.864153 600.51229463 19.9609375 598.46875 C19.06140854 597.99205872 19.06140854 597.99205872 18.14370728 597.5057373 C16.22627553 596.49299854 14.30092815 595.49646896 12.375 594.5 C11.10232123 593.83045889 9.83017956 593.15989578 8.55859375 592.48828125 C6.12261784 591.20456703 3.68145064 589.93188751 1.23388672 588.67041016 C-0.6878633 587.67776229 -2.60488997 586.67573758 -4.51123047 585.65380859 C-8.0336729 583.79471881 -10.85054659 582.46745912 -14.875 582.625 C-15.61492187 582.63789062 -16.35484375 582.65078125 -17.1171875 582.6640625 C-19.23867965 582.857406 -19.23867965 582.857406 -21 585 C-21.59062188 590.00527017 -21.00802609 595.0858728 -20 600 C-21.11375 600.268125 -22.2275 600.53625 -23.375 600.8125 C-27.21840951 601.65809019 -27.21840951 601.65809019 -29 605 C-28.79301232 608.24280703 -28.55379948 610.31631456 -26.484375 612.87109375 C-23.70768186 616.85345628 -24.20396619 621.36463392 -25 626 C-26.39019762 628.81573924 -27.94084004 631.27004514 -29.78515625 633.80859375 C-31.216103 635.90912503 -31.216103 635.90912503 -30.80859375 638.22265625 C-30.13675372 640.19368182 -30.13675372 640.19368182 -28 641 C-26.00099937 641.10459887 -24.00064506 641.18394097 -22 641.25 C-15.3788485 641.68453608 -10.61658275 643.56412206 -5 647 C-5 647.99 -5 648.98 -5 650 C-6.175625 650.0928125 -6.175625 650.0928125 -7.375 650.1875 C-10.17779294 650.72016575 -10.17779294 650.72016575 -11.1875 653.1875 C-11.455625 654.115625 -11.72375 655.04375 -12 656 C-12.391875 656.9075 -12.78375 657.815 -13.1875 658.75 C-14.25938989 663.03755955 -13.70980205 666.68363619 -13 671 C-15.31 671 -17.62 671 -20 671 C-20 670.34 -20 669.68 -20 669 C-25.46258271 670.93466471 -29.06368642 673.53081997 -33.30078125 677.4765625 C-36.51837384 680.36130068 -38.90005859 680.10744619 -43.125 680.0625 C-44.22070312 680.05347656 -45.31640625 680.04445313 -46.4453125 680.03515625 C-47.28835938 680.02355469 -48.13140625 680.01195312 -49 680 C-49.4125 679.113125 -49.825 678.22625 -50.25 677.3125 C-53.96857263 670.27377323 -58.64863523 666.10345133 -66 663 C-72.32906949 661.83250174 -77.69671922 662.74434989 -83.44140625 665.5390625 C-86.76808621 668.65730386 -87.10228632 672.91904688 -87.3359375 677.265625 C-87.36606529 678.92686118 -87.37799342 680.58849334 -87.375 682.25 C-87.37411377 683.14734863 -87.37322754 684.04469727 -87.37231445 684.96923828 C-87.24270275 692.69462207 -86.34535612 700.24156646 -85.1875 707.875 C-85.02233887 708.97360352 -84.85717773 710.07220703 -84.68701172 711.20410156 C-83.27872383 719.78631126 -81.30220678 725.89616561 -75.625 732.6875 C-74.49964844 734.05455078 -74.49964844 734.05455078 -73.3515625 735.44921875 C-69.70991607 739.39937676 -66.14676427 742.17747165 -61.1875 744.25 C-60.39730469 744.58515625 -59.60710937 744.9203125 -58.79296875 745.265625 C-58.20128906 745.50796875 -57.60960937 745.7503125 -57 746 C-57.51340384 749.79918838 -58.2079868 751.43134786 -61 754 C-62.95555061 757.08771148 -63.20149192 759.37314539 -63 763 C-60.0435078 764.4782461 -57.58613372 763.88243772 -54.3125 763.625 C-53.11238281 763.53476562 -51.91226562 763.44453125 -50.67578125 763.3515625 C-48.33111287 763.12731154 -45.99096016 762.84167291 -43.6640625 762.4765625 C-27.66921306 760.39620895 -7.3003114 760.6779035 7 769 C11.87777935 772.90222348 15.47447306 776.71969478 16.484375 783.0234375 C16.61585938 784.68246094 16.61585938 784.68246094 16.75 786.375 C16.84796875 787.47585938 16.9459375 788.57671875 17.046875 789.7109375 C16.997103 793.20327312 16.27028928 795.76564806 15 799 C13.35 799.33 11.7 799.66 10 800 C9.74476563 798.75283203 9.74476563 798.75283203 9.484375 797.48046875 C9.24203125 796.39378906 8.9996875 795.30710937 8.75 794.1875 C8.51796875 793.10855469 8.2859375 792.02960937 8.046875 790.91796875 C6.86761225 787.63099385 6.0672268 786.60029224 3 785 C0.26286305 784.62539184 -2.22025584 784.86101279 -5 785 C-5.18175781 786.04800781 -5.36351562 787.09601562 -5.55078125 788.17578125 C-5.80407058 789.55480095 -6.05801096 790.93370119 -6.3125 792.3125 C-6.43044922 793.00279297 -6.54839844 793.69308594 -6.66992188 794.40429688 C-7.20414848 797.23980733 -7.71257704 799.58004772 -9.35546875 801.98046875 C-11 803 -11 803 -15 803 C-15.15855469 802.13117187 -15.31710937 801.26234375 -15.48046875 800.3671875 C-17.24709472 791.07489954 -17.24709472 791.07489954 -23 784 C-29.3821264 779.96366544 -36.50133569 778.68581015 -44 779 C-46.89166383 779.81549081 -48.49118304 780.35559571 -50.36328125 782.7265625 C-50.67652344 783.35304688 -50.98976563 783.97953125 -51.3125 784.625 C-51.869375 785.73875 -52.42625 786.8525 -53 788 C-54.8253125 788.0309375 -54.8253125 788.0309375 -56.6875 788.0625 C-57.37199219 788.07410156 -58.05648438 788.08570313 -58.76171875 788.09765625 C-61.25944897 787.98868024 -63.55235876 787.50150447 -66 787 C-73.64844828 786.04846077 -80.15897306 787.35053692 -87.375 789.75 C-88.13578857 790.00209229 -88.89657715 790.25418457 -89.68041992 790.51391602 C-96.50371415 792.92253512 -101.7711696 796.70635373 -107.375 801.25 C-108.24898438 801.95640625 -109.12296875 802.6628125 -110.0234375 803.390625 C-110.67570312 803.92171875 -111.32796875 804.4528125 -112 805 C-111.84964992 806.92244162 -111.84964992 806.92244162 -111 809 C-108.93205596 810.50972465 -108.93205596 810.50972465 -106.375 811.75 C-100.1508969 815.26217246 -96.25202885 819.79388581 -92.18359375 825.5859375 C-89.60613647 828.4354341 -87.53398826 829.28345151 -83.9375 830.5625 C-79.72558384 832.06712765 -77.29860189 833.07705278 -75 837 C-74.3125 839.4375 -74.3125 839.4375 -75 842 C-76.84259492 843.36798714 -78.77470508 844.42923144 -80.78515625 845.53515625 C-83.25786649 847.17054662 -84.69478527 848.91114212 -86.5 851.25 C-88.85158912 854.07833498 -90.39673675 855.58223288 -94.0625 856.25 C-98.82861642 855.94738943 -100.51168591 855.25575981 -104 852 C-105.88874449 849.09960609 -107.49565753 846.11518706 -109 843 C-121.41959789 847.31326349 -130.70281639 854.03250678 -138 865 C-142.07397622 871.12253813 -146.22482547 875.8150889 -153 879 C-158.88936059 880.02830106 -163.4556741 878.74942371 -168.7421875 875.96875 C-172.48411552 872.70589235 -173.47114166 868.54278334 -174.76953125 863.86328125 C-175.73763073 860.85368406 -175.73763073 860.85368406 -178.328125 859.56640625 C-183.98288612 858.36766303 -189.26470767 860.11598315 -194.3125 862.6875 C-196.717773 864.75715351 -197.64534013 865.99457838 -199.1875 868.625 C-200.77999252 871.0010192 -201.6646478 871.87348327 -204.37109375 872.89453125 C-210.89883758 874.18156159 -217.3727876 874.05957871 -224 874 C-223.74952929 869.97762928 -223.47098769 865.95766796 -223.1875 861.9375 C-223.11724609 860.80376953 -223.04699219 859.67003906 -222.97460938 858.50195312 C-222.0054324 845.20484497 -222.0054324 845.20484497 -217.3515625 840.2421875 C-216.49691406 839.56542969 -216.49691406 839.56542969 -215.625 838.875 C-211.48800223 835.0248109 -210.06356788 830.67220986 -208.3359375 825.37890625 C-204.27002651 815.0952425 -204.27002651 815.0952425 -199.49169922 812.78979492 C-196.4315188 811.81666063 -193.37935798 811.03217638 -190.25 810.3125 C-180.7974367 808.00174407 -173.14414454 805.1505328 -165.3125 799.3125 C-162.37658682 797.13114395 -159.556888 795.95428703 -156 795 C-155.55494831 790.44505625 -155.55494831 790.44505625 -157.109375 786.33203125 C-159.79597982 784.43919604 -162.19104347 784.3537569 -165.4375 784 C-170.01827306 783.49971079 -172.44025246 782.88795137 -176 780 C-179.93853665 779.56238482 -182.24531051 779.58835119 -185.75 781.5 C-190.65145593 783.76221043 -194.71070345 784.14028991 -200 783 C-210.25150464 778.01485435 -215.2218474 770.4296575 -219 760 C-219.78125 756.70703125 -219.78125 756.70703125 -220 754 C-218.12720707 751.64166817 -216.02170913 750.017602 -213.6875 748.125 C-211.67152846 746.09157076 -211.67152846 746.09157076 -212.265625 743.265625 C-213.00888351 739.96049673 -213.97873533 736.83356494 -215.0625 733.625 C-217.90989052 724.36835407 -217.90989052 724.36835407 -217 719 C-215.33482807 716.01681212 -213.25761536 713.55272848 -211 711 C-210.37738281 710.25878906 -209.75476563 709.51757812 -209.11328125 708.75390625 C-203.51079064 702.16481352 -203.51079064 702.16481352 -198.5625 701.625 C-195 702 -195 702 -193.125 704.125 C-191.56047555 708.12322914 -191 711.7197819 -191 716 C-186.96318308 716.88809972 -184.60210458 717.22720927 -180.6875 715.75 C-177.79291751 714.11682876 -177.79291751 714.11682876 -176 711 C-175.15766696 701.80866012 -174.73000521 688.90499218 -180 681 C-184.07461757 680.5842227 -187.57044104 681.08178956 -191.5 682.0625 C-195.61649832 683.04596376 -198.84239412 683.08097753 -203 682 C-203.47308594 681.49984375 -203.94617188 680.9996875 -204.43359375 680.484375 C-207.012037 678.04096244 -209.40211581 678.42004702 -212.82421875 678.49609375 C-218.38364736 679.37821711 -223.46600161 681.56876174 -228.65625 683.6875 C-232 685 -232 685 -234 685 C-234.12375 686.10859375 -234.2475 687.2171875 -234.375 688.359375 C-235.91411646 699.86710851 -235.91411646 699.86710851 -238.8046875 702.8828125 C-240.86502634 703.87022017 -242.77849627 704.48429378 -245 705 C-245.78375 705.391875 -246.5675 705.78375 -247.375 706.1875 C-254.50170076 708.39338357 -260.98093493 708.45667278 -268 706 C-272.31486179 703.63903789 -275.00408911 701.54624146 -277 697 C-277.1875 694.1875 -277.1875 694.1875 -277 692 C-271.41354335 688.59700811 -265.92466449 686.40839021 -259.69726562 684.46484375 C-254.69231257 682.74096839 -252.47748826 680.89440223 -250 676 C-249.12608905 673.18272667 -249.12608905 673.18272667 -248.625 670.375 C-247.39598306 665.28728183 -247.39598306 665.28728183 -243.8125 662.6875 C-242.4203125 661.8521875 -242.4203125 661.8521875 -241 661 C-239.9998077 658.04411953 -239.9998077 658.04411953 -241 655 C-244.02084259 651.76338294 -245.96010065 650.35356578 -250.125 648.9375 C-253.05792586 648.73116188 -253.05792586 648.73116188 -255.1875 650.5625 C-257.12294379 652.96426484 -257.12294379 652.96426484 -258.25390625 655.96484375 C-260.35908854 659.62418745 -261.94791817 660.30160812 -265.75 662 C-272.66731495 665.70034679 -274.54861172 669.8724211 -277.3046875 676.890625 C-279.36863492 680.67611381 -280.97239923 681.60066691 -285 683 C-288.875 682.6875 -288.875 682.6875 -292 682 C-292.16330282 677.10091531 -292.17570335 674.3514067 -290 670 C-289.82269625 667.30915486 -289.90995695 664.70129136 -290 662 C-290.639375 661.773125 -291.27875 661.54625 -291.9375 661.3125 C-296.13320261 659.51434174 -300.03900556 657.26095979 -304 655 C-304 654.01 -304 653.02 -304 652 C-300.20822371 650.32653449 -296.63867952 649.51463959 -292.5625 648.8125 C-283.62331207 646.96074393 -274.7010388 643.52662136 -267.94921875 637.203125 C-265 635 -265 635 -262.11328125 635.1328125 C-260.72689453 635.62394531 -260.72689453 635.62394531 -259.3125 636.125 C-258.38050781 636.43695312 -257.44851563 636.74890625 -256.48828125 637.0703125 C-255.66714844 637.37710938 -254.84601563 637.68390625 -254 638 C-243.05929646 641.64690118 -228.48749365 637.40292131 -218.375 632.625 C-212.89507807 629.56296526 -207.84148665 626.18263687 -204.875 620.5 C-203.66324318 617.02046046 -203.66324318 617.02046046 -205.125 613.8125 C-206.68384143 611.47423786 -208.23436895 609.1860194 -210 607 C-209.03028257 605.03480363 -208.04913178 603.08818494 -206.98242188 601.17358398 C-204.26473175 596.17347925 -203.19930631 591.67429856 -202.5 586.0625 C-201.54169339 579.49478947 -200.34044946 573.82085782 -197 568 C-196.45085937 567.01966797 -196.45085937 567.01966797 -195.890625 566.01953125 C-194.93566937 564.34143893 -193.9687102 562.67019 -193 561 C-191.48479764 556.45439291 -191.73367498 551.94967994 -191.6875 547.1875 C-191.65849609 546.20201172 -191.62949219 545.21652344 -191.59960938 544.20117188 C-191.54805724 538.29646958 -191.86105035 534.57926345 -196 530 C-200.77095721 526.31286826 -207.02753833 525.028983 -212.77734375 523.61328125 C-215 523 -215 523 -216 522 C-216.07226502 520.14712498 -216.0838122 518.29166122 -216.0625 516.4375 C-216.05347656 515.42558594 -216.04445312 514.41367187 -216.03515625 513.37109375 C-216.01775391 512.19740234 -216.01775391 512.19740234 -216 511 C-214.35 510.67 -212.7 510.34 -211 510 C-209.45780198 504.16167891 -209.99218327 501.33191998 -212.9375 496 C-213.9386933 494.32146181 -214.95325661 492.65051711 -216 491 C-215.67 490.67 -215.34 490.34 -215 490 C-214.95907063 487.66702567 -214.95758277 485.33294775 -215 483 C-218.47840152 482.67547227 -218.47840152 482.67547227 -221.5625 484.0625 C-223.19773926 486.13714375 -223.19773926 486.13714375 -224.609375 489.37109375 C-227.40802877 494.31685269 -231.73488833 495.75156177 -236.77539062 497.8828125 C-239.0487281 498.88399237 -239.0487281 498.88399237 -242 501 C-243.28098125 505.25878467 -243.33486229 508.25575964 -241.5625 512.3125 C-238.48537926 520.67886515 -239.57442548 528.87352885 -243 537 C-244.6875 539.625 -244.6875 539.625 -247 541 C-253.3590577 542.00406174 -257.27084731 540.14342822 -262.94140625 537.375 C-272.07479438 533.26905795 -281.98086916 531 -292 531 C-293.48584155 535.64325486 -293.80246959 540.18388462 -291.8125 544.6875 C-287.86874965 549.71918149 -282.39676846 552.73247766 -277 556 C-277.8125 557.9375 -277.8125 557.9375 -279 560 C-279.99 560.33 -280.98 560.66 -282 561 C-282.86413154 562.97849772 -282.86413154 562.97849772 -283.39453125 565.41015625 C-284.94191925 571.05847391 -287.15229532 576.16841297 -289.6875 581.4375 C-290.12666748 582.35329834 -290.56583496 583.26909668 -291.01831055 584.21264648 C-295.74499629 593.84310828 -301.37630172 604.90436681 -312 609 C-316.51722207 609.56557089 -320.67157105 609.50876002 -324.9375 607.875 C-327.59207622 605.4617489 -328.78575751 603.37289581 -330 600 C-329.63615961 595.97222305 -328.52985863 594.11834011 -325.6875 591.3125 C-321.68502707 586.9744414 -319.88792327 582.52762149 -318 577 C-315.98569566 571.15851742 -313.23260341 568.02552241 -308.875 563.828125 C-305.83537017 560.86448592 -304.11974076 558.8016808 -303.83203125 554.47265625 C-303.81449974 551.97266329 -303.8691305 549.49621451 -304 547 C-304.99 546.67 -305.98 546.34 -307 546 C-308.6875 542.4375 -308.6875 542.4375 -310 539 C-311.65 539.33 -313.3 539.66 -315 540 C-315.99 542.97 -316.98 545.94 -318 549 C-318.99 549 -319.98 549 -321 549 C-321.99 546.03 -321.99 546.03 -323 543 C-327.23910579 544.51396635 -328.93638856 547.09387835 -331 551 C-331.68203568 555.51848638 -330.94997743 558.37058205 -329 562.375 C-326.36048079 567.96623961 -325.77821261 572.57791407 -327.8828125 578.47265625 C-330.6926034 584.49230762 -334.38588141 590.2000046 -339 595 C-342.22282413 596.07427471 -344.61511153 596.1332963 -348 596.125 C-349.5778125 596.12886719 -349.5778125 596.12886719 -351.1875 596.1328125 C-354 596 -354 596 -357 595 C-358.10540235 592.58285352 -359.05145274 590.24597399 -359.9375 587.75 C-362.05451626 581.82691948 -363.91243075 576.76627123 -369.65625 573.48046875 C-370.5946875 573.05378906 -371.533125 572.62710938 -372.5 572.1875 C-377.19801748 569.75684123 -379.47903924 567.75199299 -381.609375 562.9296875 C-382.10622235 560.47526157 -382.03147908 559.29820778 -381 557 C-378.75 555.1484375 -378.75 555.1484375 -376 553.375 C-372.39688097 551.23535997 -372.39688097 551.23535997 -370 548 C-369.56608304 543.67583648 -369.56608304 543.67583648 -371.5625 540 C-373 538 -373 538 -372.625 534.8125 C-372.41875 533.884375 -372.2125 532.95625 -372 532 C-373.54910867 530.45089133 -375.04455659 530.85493965 -377.19921875 530.82421875 C-403.82151244 530.17848756 -403.82151244 530.17848756 -410 524 C-410 520.5625 -410 520.5625 -409 517 C-407.03384339 515.9349985 -405.03273074 514.93166826 -403 514 C-402.26551288 511.46425258 -402.26551288 511.46425258 -402 509 C-402.94101562 509.02320313 -403.88203125 509.04640625 -404.8515625 509.0703125 C-406.09679687 509.08835937 -407.34203125 509.10640625 -408.625 509.125 C-410.46964844 509.15980469 -410.46964844 509.15980469 -412.3515625 509.1953125 C-415.99711796 509.00015428 -418.67058047 508.47865397 -422 507 C-425.38673463 501.5812246 -425.65446126 496.28711963 -425 490 C-424.38655243 488.31301918 -423.72904086 486.64034193 -423 485 C-422.83242243 481.79129767 -422.83242243 481.79129767 -423 479 C-425.31 478.01 -427.62 477.02 -430 476 C-429.98952637 475.3294458 -429.97905273 474.6588916 -429.96826172 473.96801758 C-429.92656829 470.91621684 -429.90063147 467.86447616 -429.875 464.8125 C-429.85824219 463.75740234 -429.84148437 462.70230469 -429.82421875 461.61523438 C-429.81455078 460.08286133 -429.81455078 460.08286133 -429.8046875 458.51953125 C-429.78897705 457.11344604 -429.78897705 457.11344604 -429.77294922 455.67895508 C-430.02107385 452.75135125 -430.70770914 450.63030363 -432 448 C-435.05596268 445.81716951 -438.35015586 445.5783906 -442 445 C-442.28950452 438.06261388 -442.50815487 431.763592 -439.88134766 425.25146484 C-439.0438642 423.1120542 -438.33653142 420.96861602 -437.6484375 418.77734375 C-434.59417707 409.57393977 -430.50297238 398.26104398 -421.75 393.25 C-420.16761559 392.49799998 -418.5844071 391.74772896 -417 391 C-414.14445983 388.56272118 -414.14445983 388.56272118 -412 386 C-411.29875 385.21625 -410.5975 384.4325 -409.875 383.625 C-406.19510979 378.47315371 -404.93229785 374.54981574 -404.625 368.3125 C-404.26983232 363.33332227 -404.26983232 363.33332227 -401.875 360.375 C-398.5494138 358.78450225 -395.6616577 358.28718884 -392 358 C-391.505 359.485 -391.505 359.485 -391 361 C-389.35 361.33 -387.7 361.66 -386 362 C-386 357.38 -386 352.76 -386 348 C-384.02 347.67 -382.04 347.34 -380 347 C-377.63838876 343.45758315 -377.23312169 341.09247559 -378 337 C-379.21169541 334.10584915 -380.55228239 331.33207684 -382.00390625 328.55078125 C-383.08471583 325.78306103 -383.06290249 324.71772073 -382 322 C-381.31164062 322.59748047 -381.31164062 322.59748047 -380.609375 323.20703125 C-379.99578125 323.73683594 -379.3821875 324.26664062 -378.75 324.8125 C-378.14671875 325.33457031 -377.5434375 325.85664063 -376.921875 326.39453125 C-376.28765625 326.92433594 -375.6534375 327.45414062 -375 328 C-374.37351562 328.52464844 -373.74703125 329.04929687 -373.1015625 329.58984375 C-368.32613114 332.79417594 -362.24596156 334 -356.5625 334 C-353.22136616 332.69614289 -352.12429195 330.85451731 -350 328 C-349.030625 327.360625 -348.06125 326.72125 -347.0625 326.0625 C-338.45444043 320.26523539 -337.18276009 312.58463368 -335 303 C-328.86186608 302.9001027 -323.08524773 303.1306789 -317 304 C-314.67841935 303.65340705 -314.67841935 303.65340705 -313 303 C-313 301.68 -313 300.36 -313 299 C-309.47005387 297.82335129 -306.70544587 297.80149397 -303 298 C-300 300 -300 300 -299.41015625 302.71484375 C-299.17869294 304.86043057 -298.94951991 307.00626571 -298.72265625 309.15234375 C-298.24146997 312.07208582 -298.24146997 312.07208582 -296.16796875 313.8203125 C-293.83319305 315.20815282 -293.83319305 315.20815282 -290.25 315.9375 C-284.85476689 317.81932528 -282.81349888 322.27673436 -279.921875 326.93359375 C-275.31570985 334.28286131 -269.8619281 339.06540636 -262.765625 343.98046875 C-260.09024602 345.93410001 -257.76648044 348.0255423 -255.375 350.3125 C-251.29128903 353.99655954 -247.53576414 356.35431911 -242 357 C-238.821132 356.78111081 -235.91329877 356.31806752 -233 355 C-230.79086 351.68629 -230.77518447 350.6553979 -230.875 346.8125 C-230.89304688 345.91144531 -230.91109375 345.01039063 -230.9296875 344.08203125 C-230.95289063 343.39496094 -230.97609375 342.70789063 -231 342 C-230.113125 342.103125 -229.22625 342.20625 -228.3125 342.3125 C-223.91588935 341.89772541 -222.87870202 340.24776638 -220 337 C-219.0925 336.38125 -218.185 335.7625 -217.25 335.125 C-214.70398787 333.0898885 -214.70398787 333.0898885 -214.0625 329.5625 C-213.76370918 325.65397849 -213.76370918 325.65397849 -216 321 C-206.1 320.67 -196.2 320.34 -186 320 C-186.33 323.96 -186.66 327.92 -187 332 C-183.69963494 335.30036506 -183.46626806 335.23709566 -179.1875 335.5 C-175.49073741 336.09537904 -174.34101623 336.5591578 -172.01171875 339.5703125 C-170.52856236 342.33839913 -169.19439279 345.09655737 -168 348 C-166.35 348 -164.7 348 -163 348 C-162.34 345.03 -161.68 342.06 -161 339 C-158.03 339 -155.06 339 -152 339 C-151.82984375 339.62648438 -151.6596875 340.25296875 -151.484375 340.8984375 C-151.24203125 341.71570313 -150.9996875 342.53296875 -150.75 343.375 C-150.51796875 344.18710937 -150.2859375 344.99921875 -150.046875 345.8359375 C-148.7785108 348.45785454 -147.67576692 348.99382318 -145 350 C-144.34 348.68 -143.68 347.36 -143 346 C-142.34 346.33 -141.68 346.66 -141 347 C-140.896875 347.969375 -140.79375 348.93875 -140.6875 349.9375 C-140.460625 350.948125 -140.23375 351.95875 -140 353 C-137.53744315 354.45291273 -137.53744315 354.45291273 -135 355 C-135 354.34 -135 353.68 -135 353 C-133.35 353.66 -131.7 354.32 -130 355 C-130 356.98 -130 358.96 -130 361 C-128.68 361.33 -127.36 361.66 -126 362 C-126.48457701 358.31721476 -127.32323053 354.97023296 -128.50390625 351.46484375 C-130.18701558 345.93238699 -130.51131274 340.6908873 -130.625 334.9375 C-130.67574091 333.07150309 -130.73021419 331.20560257 -130.7890625 329.33984375 C-130.81540771 328.12349243 -130.81540771 328.12349243 -130.84228516 326.88256836 C-130.79703734 324.98776057 -130.79703734 324.98776057 -132 324 C-136.63603811 324.40561931 -136.63603811 324.40561931 -140.9453125 326.01953125 C-144.50417111 327.71776986 -148.14971136 327.57608485 -152 327 C-154.0625 325.4375 -154.0625 325.4375 -155 323 C-155.26274852 319.2558336 -155.18823797 316.56471391 -154 313 C-153.175 312.5875 -152.35 312.175 -151.5 311.75 C-148.5938773 310.13579798 -148.5938773 310.13579798 -148.1875 306.3125 C-148.125625 305.219375 -148.06375 304.12625 -148 303 C-148.928125 302.505 -149.85625 302.01 -150.8125 301.5 C-154.23918083 299.23163382 -155.13574148 296.86141653 -156.3515625 293.03515625 C-157.26203714 290.17758222 -158.53543951 287.61073826 -160 285 C-162.83129669 283.58435166 -164.85081562 283.75775505 -168 284 C-170.02323613 284.95211112 -172.02699884 285.94773272 -174 287 C-174.99 287 -175.98 287 -177 287 C-176.9175 286.0925 -176.835 285.185 -176.75 284.25 C-176.69004733 280.97762765 -176.69004733 280.97762765 -178.6875 278.9375 C-180.32618965 277.5645438 -182.02106061 276.25741047 -183.75 275 C-186.83481371 270.88691506 -186.23193018 267.82986803 -185.78515625 262.83984375 C-185.7346706 259.88443085 -185.7346706 259.88443085 -187.84375 257.76171875 C-188.5553125 257.18035156 -189.266875 256.59898437 -190 256 C-194.68495285 251.91568213 -198.19724688 246.99293605 -200 241 C-199.19921875 238.83203125 -199.19921875 238.83203125 -198 237 C-195.74811591 232.49623183 -195.91768719 228.9387688 -196 224 C-195 223 -195 223 -192.75 222.625 C-190 223 -190 223 -187.5625 225.5 C-185.21854991 228.23496601 -185.21854991 228.23496601 -182 228.625 C-177.97779679 227.787041 -176.62564417 226.10931547 -174 223 C-172.9171875 221.7315625 -172.9171875 221.7315625 -171.8125 220.4375 C-167.76476284 214.99399141 -167.31899431 210.67945309 -168 204 C-168.54450854 202.05123258 -169.12812363 200.11297496 -169.75 198.1875 C-171.15224879 193.38462853 -171.15224879 193.38462853 -169.8125 190 C-163.54879438 185.54580934 -156.5397938 184.47089166 -149 185 C-148.01 185.33 -147.02 185.66 -146 186 C-145.6793965 191.34339164 -146.50460905 194.32114197 -149 199 C-149 200.32 -149 201.64 -149 203 C-143.62735135 201.86670862 -143.62735135 201.86670862 -138.60546875 199.71875 C-130.28072571 195.3308913 -123.14513065 195.80710699 -113.92163086 196.56567383 C-112.95749268 196.64325928 -111.99335449 196.72084473 -111 196.80078125 C-109.700625 196.92706909 -109.700625 196.92706909 -108.375 197.0559082 C-104.96971733 196.97574684 -102.88456747 195.89853432 -100.515625 193.4921875 C-100.09796875 192.95851562 -99.6803125 192.42484375 -99.25 191.875 C-98.5075 190.92625 -97.765 189.9775 -97 189 C-93.34212876 189.23224579 -92.19608963 189.78440061 -89.68359375 192.546875 C-88.94238281 193.60390625 -88.20117188 194.6609375 -87.4375 195.75 C-86.69371094 196.79671875 -85.94992187 197.8434375 -85.18359375 198.921875 C-84.46300781 199.93765625 -83.74242187 200.9534375 -83 202 C-81.67913711 203.67656696 -80.35006581 205.34685819 -79 207 C-76.57732914 207.05167527 -76.57732914 207.05167527 -74 206 C-70.7302012 199.81073798 -69.93209071 194.65444646 -69.6875 187.75 C-69.40890691 182.69552538 -68.9952129 178.46619156 -66.2734375 174.11328125 C-64.84829451 171.86332799 -64.84829451 171.86332799 -63.6015625 168.66796875 C-61.99275519 165.04619033 -60.52794784 162.0585048 -58 159 C-53.89882969 157.61412267 -50.28249786 157.57104701 -46 158 C-46 157.01 -46 156.02 -46 155 C-46.66 155 -47.32 155 -48 155 C-47.67 147.74 -47.34 140.48 -47 133 C-43.7 133 -40.4 133 -37 133 C-36.34 132.67 -35.68 132.34 -35 132 C-33.63974436 127.09864408 -34.35483029 123.32915166 -35.5 118.4375 C-37.50551268 109.85355997 -37.50551268 109.85355997 -36 106 C-29.0148954 100.58266332 -19.2895541 101.6021014 -11 102 C-11 101.34 -11 100.68 -11 100 C-10.34 100 -9.68 100 -9 100 C-10.38566455 95.34579732 -12.50867056 93.52246274 -16.375 90.6875 C-22.33254032 86.00880342 -25.60473659 81.59467243 -27 74 C-25.40005664 71.6889707 -24.0833318 71.03048725 -21.4375 70.0625 C-18.96320054 69.22441874 -18.96320054 69.22441874 -17.82421875 67.41796875 C-16.6547241 63.9870816 -17.04012411 60.79298688 -17.375 57.25 C-17.43171875 56.55261719 -17.4884375 55.85523438 -17.546875 55.13671875 C-17.68767872 53.42360688 -17.84245972 51.71165389 -18 50 C-17.38125 49.731875 -16.7625 49.46375 -16.125 49.1875 C-13.7004767 48.04443152 -13.7004767 48.04443152 -12 45 C-11.50066759 42.66895648 -11.50066759 42.66895648 -11.25390625 40.0703125 C-11.08084961 38.62978516 -11.08084961 38.62978516 -10.90429688 37.16015625 C-10.67734973 35.14486558 -10.45336664 33.12923881 -10.23242188 31.11328125 C-9.02977865 21.18649134 -9.02977865 21.18649134 -6 18 C-2.93359375 16.9609375 -2.93359375 16.9609375 0.5625 16.375 C3.99180504 15.83893667 3.99180504 15.83893667 7 15 C9.18166771 12.27889502 9.18166771 12.27889502 9.125 9.6875 C7.56188789 5.95339884 5.00194286 4.47584153 1.71484375 2.234375 C1.14894531 1.82703125 0.58304687 1.4196875 0 1 C0 0.67 0 0.34 0 0 Z M-9 110 C-9.95020416 112.239835 -9.95020416 112.239835 -10 115 C-7.93714781 117.97958785 -7.93714781 117.97958785 -5 120 C-2.73966377 120.1860521 -2.73966377 120.1860521 -1 119 C-0.67 118.01 -0.34 117.02 0 116 C-1.9628843 112.8291869 -3.12536 111.25841636 -6.75 110.1875 C-7.86375 110.0946875 -7.86375 110.0946875 -9 110 Z M58 581 C58 581.66 58 582.32 58 583 C58.66 582.67 59.32 582.34 60 582 C59.34 581.67 58.68 581.34 58 581 Z " fill="#020202" transform="translate(442,0)"/>
<path d="M0 0 C3.21383463 0.90646618 4.88884906 1.02385679 8.203125 0.3125 C12.73665781 -0.06063027 15.4635345 1.17510455 19.3125 3.3125 C19.93189453 3.63412109 20.55128906 3.95574219 21.18945312 4.28710938 C23.78327492 5.6586525 25.91543578 6.91543578 28 9 C28.47795794 20.63030976 24.10293169 30.60650067 17.546875 39.859375 C15.58898539 43.8344842 15.81317799 45.77103831 17 50 C18.5581184 52.61367052 18.5581184 52.61367052 20.5625 54.8125 C24 58.83098592 24 58.83098592 24 61 C21.69 60.67 19.38 60.34 17 60 C14.30055008 63.99708023 14.6503561 68.27957967 14.5859375 72.921875 C14.56657135 73.78186096 14.5472052 74.64184692 14.5272522 75.52789307 C14.46758186 78.26849521 14.4211214 81.00913964 14.375 83.75 C14.33680866 85.61069517 14.29775625 87.47137288 14.2578125 89.33203125 C14.16189065 93.88787864 14.07781332 98.44380879 14 103 C13.10075806 103.14248169 13.10075806 103.14248169 12.18334961 103.2878418 C9.43121233 103.73516034 6.68474079 104.21106821 3.9375 104.6875 C2.99455078 104.83638672 2.05160156 104.98527344 1.08007812 105.13867188 C-6.75618083 106.53117782 -12.21111594 109.08546359 -17.0625 115.6875 C-19.66260718 118.91135256 -21.87222674 120.11547716 -26 121 C-26.51243113 118.43784435 -27.01376608 115.90134308 -27.375 113.3125 C-27.82459475 110.64135017 -27.82459475 110.64135017 -31 109 C-33.0179789 108.62152955 -33.0179789 108.62152955 -35.125 108.5 C-36.40375 108.335 -37.6825 108.17 -39 108 C-40 106 -40 106 -39.375 103.5625 C-37.71192368 100.4631305 -35.97666898 99.75547145 -33 98 C-32.12177688 95.91466367 -32.12177688 95.91466367 -32 94 C-36.73533016 95.40711768 -38.82605666 97.74888556 -41.875 101.5625 C-42.30917236 102.09609131 -42.74334473 102.62968262 -43.19067383 103.17944336 C-45.18030516 105.63899686 -47.09437661 108.12960301 -48.95703125 110.6875 C-52.57631701 115.65482673 -54.97267783 118.38553871 -61 120 C-65.8247649 120.42322499 -69.53251381 119.8701105 -74 118 C-74.66 117.34 -75.32 116.68 -76 116 C-75.91112529 111.55626445 -74.95264091 108.66681578 -72.5 105.0625 C-70.25147957 101.72184107 -69.53110645 99.15350478 -69.2265625 95.07421875 C-68.48314765 88.26812766 -65.93607897 82.70102759 -61 78 C-58.1875 77.125 -58.1875 77.125 -56 77 C-55.67 78.32 -55.34 79.64 -55 81 C-51.09280598 80.45299284 -48.92436834 79.96960339 -46.1640625 77.07421875 C-43.62971817 73.53446552 -42.04129051 71.09419839 -41.875 66.6875 C-43.82317164 62.03353441 -46.03667056 60.43183733 -50.625 58.375 C-51.73875 57.92125 -52.8525 57.4675 -54 57 C-54.66 56.34 -55.32 55.68 -56 55 C-55.625 52.375 -55.625 52.375 -55 50 C-53.72125 50.061875 -52.4425 50.12375 -51.125 50.1875 C-43.73840633 50.1875 -37.16205302 48.04384729 -31 44 C-30.34 44 -29.68 44 -29 44 C-28.72251758 42.58845901 -28.47906484 41.17020201 -28.25 39.75 C-28.11078125 38.96109375 -27.9715625 38.1721875 -27.828125 37.359375 C-27.7957879 34.86867622 -27.7957879 34.86867622 -29.61328125 32.8515625 C-32.30318841 30.76479328 -34.73544834 29.76368672 -37.9375 28.625 C-43.24570978 26.50560489 -46.14714762 24.99249166 -49 20 C-49.375 16.6875 -49.375 16.6875 -49 14 C-47.38829746 12.38829746 -45.63867458 12.87012069 -43.4140625 12.8671875 C-42.48335938 12.86589844 -41.55265625 12.86460938 -40.59375 12.86328125 C-39.6140625 12.86714844 -38.634375 12.87101562 -37.625 12.875 C-36.65304687 12.87113281 -35.68109375 12.86726563 -34.6796875 12.86328125 C-33.74640625 12.86457031 -32.813125 12.86585937 -31.8515625 12.8671875 C-30.56499756 12.86887939 -30.56499756 12.86887939 -29.25244141 12.87060547 C-27 13 -27 13 -24 14 C-22.60560336 14.06665376 -21.20830125 14.08538199 -19.8125 14.0625 C-18.554375 14.041875 -17.29625 14.02125 -16 14 C-13.24297811 9.20517932 -12.46671627 5.41390868 -12 0 C-7.14493828 -2.08074074 -4.85250901 -1.96165258 0 0 Z " fill="#020202" transform="translate(367,57)"/>
<path d="M0 0 C1.32 0.33 2.64 0.66 4 1 C3.52372025 2.95903745 3.04388577 4.91721097 2.5625 6.875 C2.29566406 7.96554688 2.02882813 9.05609375 1.75390625 10.1796875 C1 13 1 13 0 15 C-2.109375 15.6328125 -2.109375 15.6328125 -4.75 16.125 C-5.61109375 16.29257813 -6.4721875 16.46015625 -7.359375 16.6328125 C-9.94533821 16.9923991 -12.39313809 17.06564041 -15 17 C-15.33 16.01 -15.66 15.02 -16 14 C-15.28972656 13.87882812 -14.57945312 13.75765625 -13.84765625 13.6328125 C-12.92855469 13.46523437 -12.00945312 13.29765625 -11.0625 13.125 C-9.68771484 12.88136719 -9.68771484 12.88136719 -8.28515625 12.6328125 C-7.53105469 12.42398438 -6.77695312 12.21515625 -6 12 C-5.67 11.34 -5.34 10.68 -5 10 C-4.34 10 -3.68 10 -3 10 C-2.01 6.7 -1.02 3.4 0 0 Z " fill="#0D0D0D" transform="translate(448,82)"/>
<path d="M0 0 C0.94875 0.165 1.8975 0.33 2.875 0.5 C5.80168901 1.0526635 5.80168901 1.0526635 8 1 C8.68693763 4.02252556 9.19215562 6.28902419 8.375 9.3125 C7 11 7 11 4.5 11.8125 C2 12 2 12 0 11 C0 7.37 0 3.74 0 0 Z M4 6 C4 6.66 4 7.32 4 8 C4.66 7.67 5.32 7.34 6 7 C5.34 6.67 4.68 6.34 4 6 Z " fill="#0C0C0C" transform="translate(496,575)"/>
<path d="M0 0 C-0.30893932 1.6256807 -0.6222695 3.25052748 -0.9375 4.875 C-1.11152344 5.77992188 -1.28554688 6.68484375 -1.46484375 7.6171875 C-2 10 -2 10 -3 12 C-6.875 11.125 -6.875 11.125 -8 10 C-8.14115161 7.32941149 -8.04247107 4.67567762 -8 2 C-5.09399739 0.74335022 -3.20395416 0 0 0 Z " fill="#0D0D0D" transform="translate(268,249)"/>
<path d="M0 0 C0 3 0 3 -2.5 5.6875 C-3.325 6.450625 -4.15 7.21375 -5 8 C-5.66 7.67 -6.32 7.34 -7 7 C-6.34 5.35 -5.68 3.7 -5 2 C-10.01113235 3.4317521 -11.94469549 5.98445693 -15 10 C-15 5.95751447 -13.53316919 4.42050608 -10.93359375 1.453125 C-7.55586217 -1.08529146 -4.02156324 -0.56301885 0 0 Z " fill="#0D0D0D" transform="translate(340,149)"/>
<path d="M0 0 C0.33 3.3 0.66 6.6 1 10 C0.319375 9.319375 -0.36125 8.63875 -1.0625 7.9375 C-3.91065591 5.64180682 -3.91065591 5.64180682 -7.5625 6.1875 C-8.696875 6.455625 -9.83125 6.72375 -11 7 C-12.2065625 7.2784375 -12.2065625 7.2784375 -13.4375 7.5625 C-14.2109375 7.7790625 -14.2109375 7.7790625 -15 8 C-13.875 5.5 -13.875 5.5 -12 3 C-9.0625 2.875 -9.0625 2.875 -6 3 C-1.5 0 -1.5 0 0 0 Z " fill="#0D0D0D" transform="translate(334,834)"/>
<path d="M0 0 C2.72426311 2.35277269 3.8141763 4.62496331 5 8 C5.99 7.67 6.98 7.34 8 7 C10.6875 8.9375 10.6875 8.9375 13 11 C6.27494919 10.83560987 2.78944649 9.78944649 -2 5 C-1.125 1.125 -1.125 1.125 0 0 Z " fill="#0D0D0D" transform="translate(241,707)"/>
<path d="M0 0 C4.875 2.75 4.875 2.75 6 5 C1.545 7.97 1.545 7.97 -3 11 C-1.125 1.125 -1.125 1.125 0 0 Z " fill="#0C0C0C" transform="translate(131,570)"/>
<path d="M0 0 C1.75098126 2.62647188 3.38731308 5.28775382 5 8 C4.01 8.33 3.02 8.66 2 9 C2.41586354 13.2787981 2.41586354 13.2787981 4.5625 16.875 C5.036875 17.24625 5.51125 17.6175 6 18 C3.5625 17.625 3.5625 17.625 1 17 C-0.51011533 13.97976933 -0.38689513 10.84638859 -0.62109375 7.5078125 C-1.00613097 4.95942185 -1.72413954 3.2211336 -3 1 C-2.01 0.67 -1.02 0.34 0 0 Z " fill="#0F0F0F" transform="translate(431,102)"/>
<path d="M0 0 C-0.33 2.97 -0.66 5.94 -1 9 C-1.99 9.33 -2.98 9.66 -4 10 C-4.103125 9.360625 -4.20625 8.72125 -4.3125 8.0625 C-4.539375 7.381875 -4.76625 6.70125 -5 6 C-5.99 5.67 -6.98 5.34 -8 5 C-8 4.34 -8 3.68 -8 3 C-2.25 0 -2.25 0 0 0 Z " fill="#0D0D0D" transform="translate(252,817)"/>
<path d="M0 0 C1.65 1.65 3.3 3.3 5 5 C2.2180632 8.27286682 -1.27954067 9.96427697 -5 12 C-5.33 9.03 -5.66 6.06 -6 3 C-5.01 3.99 -4.02 4.98 -3 6 C-2.01 6 -1.02 6 0 6 C0 4.02 0 2.04 0 0 Z " fill="#0D0D0D" transform="translate(316,356)"/>
<path d="M0 0 C1.98 0 3.96 0 6 0 C6.66 1.32 7.32 2.64 8 4 C4.01803543 5.05404945 1.01804691 4.84098656 -3 4 C-2.67 3.34 -2.34 2.68 -2 2 C-1.34 2 -0.68 2 0 2 C0 1.34 0 0.68 0 0 Z " fill="#0D0D0D" transform="translate(396,156)"/>
<path d="M0 0 C2.04119788 1.61594832 4.04072937 3.2856382 6 5 C6 5.66 6 6.32 6 7 C5.01 7 4.02 7 3 7 C2.67 7.99 2.34 8.98 2 10 C-1.07692308 4.58461538 -1.07692308 4.58461538 -0.6875 1.625 C-0.460625 1.08875 -0.23375 0.5525 0 0 Z " fill="#0B0B0B" transform="translate(60,322)"/>
<path d="M0 0 C0.66 0.33 1.32 0.66 2 1 C2.4140625 3.06640625 2.4140625 3.06640625 2.625 5.5625 C2.69976562 6.38878906 2.77453125 7.21507812 2.8515625 8.06640625 C2.90054688 8.70449219 2.94953125 9.34257813 3 10 C1.35 10.33 -0.3 10.66 -2 11 C-1.85892253 9.54119891 -1.71197585 8.08296449 -1.5625 6.625 C-1.48128906 5.81289063 -1.40007812 5.00078125 -1.31640625 4.1640625 C-1 2 -1 2 0 0 Z " fill="#0D0D0D" transform="translate(117,533)"/>
<path d="M0 0 C0.763125 0.20625 1.52625 0.4125 2.3125 0.625 C3.3125 3.625 3.3125 3.625 1.875 6.8125 C1.1015625 8.2046875 1.1015625 8.2046875 0.3125 9.625 C-0.6775 9.295 -1.6675 8.965 -2.6875 8.625 C-2.0275 7.965 -1.3675 7.305 -0.6875 6.625 C-0.6875 5.305 -0.6875 3.985 -0.6875 2.625 C-2.3375 2.295 -3.9875 1.965 -5.6875 1.625 C-2.6875 -0.375 -2.6875 -0.375 0 0 Z " fill="#0D0D0D" transform="translate(40.6875,506.375)"/>
<path d="M0 0 C3.3 0.33 6.6 0.66 10 1 C8.02 1.99 8.02 1.99 6 3 C5.19471111 5.05000871 5.19471111 5.05000871 5 7 C3.29115995 5.37660195 1.62553283 3.70680947 0 2 C0 1.34 0 0.68 0 0 Z " fill="#0D0D0D" transform="translate(476,105)"/>
<path d="M0 0 C2.79872437 2.52788007 4.45773019 4.20411134 5 8 C3.68 8.33 2.36 8.66 1 9 C0.01 7.68 -0.98 6.36 -2 5 C-1.34 5 -0.68 5 0 5 C0 3.35 0 1.7 0 0 Z " fill="#0E0E0E" transform="translate(495,104)"/>
<path d="M0 0 C1.67542976 0.28604898 3.34385343 0.61781233 5 1 C2 3 2 3 0 4 C-0.15149298 7.62885324 -0.15149298 7.62885324 1 11 C-0.65 11 -2.3 11 -4 11 C-3.5247412 9.35303396 -3.04468109 7.70745272 -2.5625 6.0625 C-2.29566406 5.14597656 -2.02882813 4.22945313 -1.75390625 3.28515625 C-1 1 -1 1 0 0 Z " fill="#0F0F0F" transform="translate(517,327)"/>
<path d="M0 0 C3.77545388 1.09068668 6.47043472 1.9083091 9 5 C8.01 6.32 7.02 7.64 6 9 C5.67 7.35 5.34 5.7 5 4 C1.37114676 3.84850702 1.37114676 3.84850702 -2 5 C-1.34 3.35 -0.68 1.7 0 0 Z " fill="#0E0E0E" transform="translate(222,479)"/>
<path d="M0 0 C3.81538462 2.46153846 3.81538462 2.46153846 4.75 5.1875 C4.8325 5.785625 4.915 6.38375 5 7 C2.39417629 7.93065133 1.35801776 8.14917407 -1.25 7.0625 C-1.8275 6.711875 -2.405 6.36125 -3 6 C-2.01 5.34 -1.02 4.68 0 4 C0 2.68 0 1.36 0 0 Z " fill="#0F0F0F" transform="translate(441,114)"/>
<path d="M0 0 C0.33 0 0.66 0 1 0 C1 1.65 1 3.3 1 5 C-0.98 5.66 -2.96 6.32 -5 7 C-5 5.02 -5 3.04 -5 1 C-2.525 1.495 -2.525 1.495 0 2 C0 1.34 0 0.68 0 0 Z " fill="#0C0C0C" transform="translate(457,793)"/>
<path d="M0 0 C1.98 0.66 3.96 1.32 6 2 C6 2.33 6 2.66 6 3 C4.35 3.33 2.7 3.66 1 4 C0.67 5.32 0.34 6.64 0 8 C-0.99 7.67 -1.98 7.34 -3 7 C-2.25 2.25 -2.25 2.25 0 0 Z " fill="#0F0F0F" transform="translate(541,440)"/>
<path d="M0 0 C0.66 0 1.32 0 2 0 C3.32 2.64 4.64 5.28 6 8 C0.92134831 6.73033708 0.92134831 6.73033708 -1 4 C-0.6875 1.8125 -0.6875 1.8125 0 0 Z " fill="#0D0D0D" transform="translate(310,369)"/>
<path d="M0 0 C1.32 0 2.64 0 4 0 C3.814375 0.763125 3.62875 1.52625 3.4375 2.3125 C2.77180827 5.08967375 2.77180827 5.08967375 4 8 C2.0625 7.3125 2.0625 7.3125 0 6 C-0.8125 3.4375 -0.8125 3.4375 -1 1 C-0.67 0.67 -0.34 0.34 0 0 Z " fill="#0C0C0C" transform="translate(312,107)"/>
<path d="M0 0 C0.66 1.32 1.32 2.64 2 4 C3.65 4 5.3 4 7 4 C6.01 4.99 5.02 5.98 4 7 C1.525 6.01 1.525 6.01 -1 5 C-0.67 3.35 -0.34 1.7 0 0 Z " fill="#0D0D0D" transform="translate(291,199)"/>
<path d="M0 0 C0 1.98 0 3.96 0 6 C-1.32 6.33 -2.64 6.66 -4 7 C-4 5.02 -4 3.04 -4 1 C-1 0 -1 0 0 0 Z " fill="#0D0D0D" transform="translate(125,542)"/>
<path d="M0 0 C4.8 2.46153846 4.8 2.46153846 5.8125 5.1875 C5.874375 5.785625 5.93625 6.38375 6 7 C3.69 6.67 1.38 6.34 -1 6 C-0.67 4.02 -0.34 2.04 0 0 Z " fill="#0D0D0D" transform="translate(128,533)"/>
<path d="M0 0 C-0.66 1.32 -1.32 2.64 -2 4 C-4.97 3.01 -7.94 2.02 -11 1 C-11 0.67 -11 0.34 -11 0 C-7.01803543 -1.05404945 -4.01804691 -0.84098656 0 0 Z " fill="#0D0D0D" transform="translate(75,529)"/>
<path d="M0 0 C1.70840281 1.63412443 2.93453047 2.86906094 4 5 C4.99 5.66 5.98 6.32 7 7 C4.125 7.125 4.125 7.125 1 7 C0.34 6.34 -0.32 5.68 -1 5 C-0.625 2.375 -0.625 2.375 0 0 Z " fill="#101010" transform="translate(515,23)"/>
<path d="M0 0 C0.625 1.875 0.625 1.875 1 4 C0.34 4.66 -0.32 5.32 -1 6 C-4.125 5.625 -4.125 5.625 -7 5 C-6.67 4.01 -6.34 3.02 -6 2 C-4.35 2 -2.7 2 -1 2 C-0.67 1.34 -0.34 0.68 0 0 Z " fill="#0D0D0D" transform="translate(280,346)"/>
<path d="M0 0 C2.4375 0.8125 2.4375 0.8125 5 2 C5.33 2.99 5.66 3.98 6 5 C4.02 5.33 2.04 5.66 0 6 C0 4.02 0 2.04 0 0 Z " fill="#0B0B0B" transform="translate(527,200)"/>
<path d="M0 0 C3.375 -0.125 3.375 -0.125 7 0 C7.66 0.66 8.32 1.32 9 2 C8.625 4.125 8.625 4.125 8 6 C7.34 5.01 6.68 4.02 6 3 C2.93443402 2.26656572 2.93443402 2.26656572 0 2 C0 1.34 0 0.68 0 0 Z " fill="#090909" transform="translate(240,702)"/>
<path d="M0 0 C0.33 0.99 0.66 1.98 1 3 C-0.3125 4.5 -0.3125 4.5 -2 6 C-2.99 6 -3.98 6 -5 6 C-5 4.68 -5 3.36 -5 2 C-3.35 1.34 -1.7 0.68 0 0 Z " fill="#0F0F0F" transform="translate(433,797)"/>
<path d="M0 0 C2.31 0 4.62 0 7 0 C6.34 0.66 5.68 1.32 5 2 C4.35232207 4.57061311 4.35232207 4.57061311 4 7 C0 2.25 0 2.25 0 0 Z " fill="#0D0D0D" transform="translate(566,409)"/>
<path d="M0 0 C0.433125 0.45375 0.86625 0.9075 1.3125 1.375 C3.10798342 3.20024334 3.10798342 3.20024334 6 5 C5.01 6.485 5.01 6.485 4 8 C3.01 8 2.02 8 1 8 C0.67 5.36 0.34 2.72 0 0 Z " fill="#0E0E0E" transform="translate(543,391)"/>
<path d="M0 0 C0 1.65 0 3.3 0 5 C-2.31 4.01 -4.62 3.02 -7 2 C-5.26578631 -1.46842738 -3.40984787 -1.13661596 0 0 Z " fill="#101010" transform="translate(313,321)"/>
<path d="M0 0 C1.2065625 0.0309375 1.2065625 0.0309375 2.4375 0.0625 C2.7675 1.0525 3.0975 2.0425 3.4375 3.0625 C1.7875 3.0625 0.1375 3.0625 -1.5625 3.0625 C-1.8925 3.7225 -2.2225 4.3825 -2.5625 5.0625 C-3.125 3.125 -3.125 3.125 -3.5625 1.0625 C-2.5625 0.0625 -2.5625 0.0625 0 0 Z " fill="#0D0D0D" transform="translate(249.5625,222.9375)"/>
<path d="M0 0 C1.9375 0.75 1.9375 0.75 4 2 C4.75 4.125 4.75 4.125 5 6 C3.02 5.34 1.04 4.68 -1 4 C-0.67 2.68 -0.34 1.36 0 0 Z " fill="#090909" transform="translate(386,112)"/>
<path d="M0 0 C0.99 0.33 1.98 0.66 3 1 C2.8125 2.875 2.8125 2.875 2 5 C-0.5625 6.25 -0.5625 6.25 -3 7 C-2.690625 6.401875 -2.38125 5.80375 -2.0625 5.1875 C-0.89790296 2.91043228 -0.89790296 2.91043228 0 0 Z " fill="#0A0A0A" transform="translate(452,9)"/>
<path d="M0 0 C2.31 0 4.62 0 7 0 C6.34 1.32 5.68 2.64 5 4 C3.0625 3.6875 3.0625 3.6875 1 3 C0.67 2.01 0.34 1.02 0 0 Z " fill="#0A0A0A" transform="translate(517,382)"/>
<path d="M0 0 C0.268125 0.598125 0.53625 1.19625 0.8125 1.8125 C1.98493467 3.97224808 3.19369282 5.35790256 5 7 C3.02 7 1.04 7 -1 7 C-0.67 4.69 -0.34 2.38 0 0 Z " fill="#0C0C0C" transform="translate(377,759)"/>
<path d="M0 0 C0.33 0.66 0.66 1.32 1 2 C0.01 3.485 0.01 3.485 -1 5 C-1.99 5 -2.98 5 -4 5 C-4.33 3.68 -4.66 2.36 -5 1 C-3.35 0.67 -1.7 0.34 0 0 Z " fill="#0D0D0D" transform="translate(317,137)"/>
<path d="M0 0 C0.66 0.33 1.32 0.66 2 1 C2.625 3.0625 2.625 3.0625 3 5 C1.02 5 -0.96 5 -3 5 C-2.67 4.01 -2.34 3.02 -2 2 C-1.34 2 -0.68 2 0 2 C0 1.34 0 0.68 0 0 Z " fill="#0F0F0F" transform="translate(426,666)"/>
<path d="M0 0 C1.65 0 3.3 0 5 0 C5 1.65 5 3.3 5 5 C2.525 4.01 2.525 4.01 0 3 C0 2.01 0 1.02 0 0 Z " fill="#0C0C0C" transform="translate(138,652)"/>
<path d="M0 0 C1.65 1.65 3.3 3.3 5 5 C2.69 5 0.38 5 -2 5 C-1.34 3.35 -0.68 1.7 0 0 Z " fill="#0D0D0D" transform="translate(409,637)"/>
<path d="M0 0 C1.98 0.66 3.96 1.32 6 2 C4.1875 3.5625 4.1875 3.5625 2 5 C1.01 4.67 0.02 4.34 -1 4 C-0.67 2.68 -0.34 1.36 0 0 Z " fill="#0F0F0F" transform="translate(504,416)"/>
<path d="M0 0 C0.99 0 1.98 0 3 0 C3.33 2.97 3.66 5.94 4 9 C2.68 8.67 1.36 8.34 0 8 C0.33 7.67 0.66 7.34 1 7 C1.19149081 3.36805359 1.19149081 3.36805359 0 0 Z " fill="#0D0D0D" transform="translate(530,348)"/>
<path d="M0 0 C0.66 0 1.32 0 2 0 C1.979375 0.78375 1.95875 1.5675 1.9375 2.375 C1.81315937 4.98114961 1.81315937 4.98114961 3 7 C1.68 6.67 0.36 6.34 -1 6 C-1.042721 4.33388095 -1.04063832 2.66617115 -1 1 C-0.67 0.67 -0.34 0.34 0 0 Z " fill="#101010" transform="translate(486,389)"/>
<path d="M0 0 C1.98 0.99 1.98 0.99 4 2 C4 2.99 4 3.98 4 5 C2.68 5.33 1.36 5.66 0 6 C0 4.02 0 2.04 0 0 Z " fill="#0D0D0D" transform="translate(292,348)"/>
<path d="M0 0 C0.33 0.99 0.66 1.98 1 3 C0.01 3.99 -0.98 4.98 -2 6 C-2.99 4.68 -3.98 3.36 -5 2 C-3.35 1.34 -1.7 0.68 0 0 Z " fill="#101010" transform="translate(368,206)"/>
<path d="M0 0 C2.475 0.99 2.475 0.99 5 2 C5 2.66 5 3.32 5 4 C3.68 4.33 2.36 4.66 1 5 C0.67 3.35 0.34 1.7 0 0 Z " fill="#090909" transform="translate(340,173)"/>
<path d="M0 0 C0.66 0 1.32 0 2 0 C2 1.32 2 2.64 2 4 C1.34 4 0.68 4 0 4 C0 2.68 0 1.36 0 0 Z " fill="#040404" transform="translate(557,382)"/>
<path d="M0 0 C3 1 3 1 3 1 Z " fill="#000000" transform="translate(354,879)"/>
</svg>
