<!-- svg path classes can be found in ./svg.css -->


<svg xmlns="http://www.w3.org/2000/svg" viewBox="0 0 556.57 830.75"><defs><style>.cls-1{fill:#ccc;}.cls-2{fill:#49c160;}.cls-3{fill:#a0ce7b;}.cls-4,.cls-9{fill:#f4e150;}.cls-5{fill:#eae480;}.cls-6{fill:#ad7a50;}.cls-7{fill:#2b8940;}.cls-8{fill:#8bb545;}.cls-9{opacity:0.75;}</style></defs><g id="Layer_2" data-name="Layer 2"><g id="terrain_under" data-name="terrain under"><path class=" cls-1" d="M418.29,5.67c6.22.43,6.78,26,15,27,5.35.63,7.75-9.87,15-10,6-.12,8,7.11,18,16,12.08,10.71,17.51,7.51,23,15,9.59,13.07,4.29,38.21-6,42-8.71,3.21-17.59-10.13-25-6-3.87,2.15-1.82,6-8,22-3.63,9.4-5.45,14.1-9.76,18.64-3.45,3.64-6.79,5.56-6.24,7.36.94,3,11.12-.11,14,4,3.69,5.25-10.21,14.23-9,25,1.77,15.74,33.63,15.56,40,36,3.85,12.32-5.07,20.92,1,28,7.15,8.32,22.23-.38,28,7,6.56,8.37-2.9,32.3-16,35-11.68,2.4-23.34-12.7-25-11s12.89,15.68,23,38c3.53,7.78,12,26.46,6,32-7.61,7-33.81-11.51-37-7-2.29,3.24,11.95,11.77,11,23-1.1,13.07-21.42,13.69-28,29-8.27,19.24,9.85,50.87,24,51,3.8,0,6.14-2.21,28-28,15.68-18.5,17.72-21.17,23-25,2.14-1.55,4.25-2.95,4.41-3.05a57.32,57.32,0,0,1,16.95-7.57c4.53-1.1,15.64-3.8,17.64-.38,3.55,6.07-27.72,21.73-25,40,1.84,12.32,16.81,16.67,15,23-2.91,10.18-43.11,3.72-46,14-1.6,5.72,10.26,9.83,16,26,2.71,7.6,5,20.63,0,24-6.44,4.32-16.91-12.62-36-13-12.78-.26-29.2,6.92-34,21-5.1,15,4.32,33.67,12,34,9.43.4,12-27,25-28,10.16-.75,21.94,15,19,22-2,4.72-9.67,2.84-13,8-4.66,7.22,4.17,20.55,9,28,24.4,37.55,36.59,56.32,33,62-5.47,8.66-44.43,3.81-63-20-14.86-19.07-13.21-45.87-20-46-4.59-.1-4.54,12.23-13,16-14.53,6.47-32.12-22.18-45-17-11.69,4.7-16.3,36-5,57,6.16,11.44,13.59,13.44,13,21-.94,12.15-21.53,24.43-40,23-17.45-1.36-24-14.26-30-11-9.66,5.26-8,47.37,15,64,7,5.05,18.95,5.1,36.73,6.71a56.51,56.51,0,0,1,24.27,7.29s1.08.63,2.14,1.32c12.3,8,28.05,29.24,23.86,34.68-4.31,5.61-24.68-12.28-63-17-15.09-1.86-45.55-5.62-55,10-5.77,9.54-3.35,25.75,5,33,7.34,6.37,17.11,4,18,8s-8.28,11-18,14c-13.77,4.21-19.6-2.21-30,3-9,4.48-6.92,10.4-14,13-13.67,5-25.28-15.62-41-12-12.57,2.89-15,18.34-20,17-7.46-2-11.4-39.16,5-51,9.49-6.85,18.09.31,34-7,13.39-6.15,24.56-19.15,22-25-2.69-6.17-18.44.63-43-6-11.3-3.06-29.54-8-33-21s8.55-30.22,22-34c11.76-3.31,19,5.33,29,0a21.83,21.83,0,0,0,11-19c-.18-11.37-10.56-19.43-19-22-12.47-3.81-24.08,3.35-30,7-18.68,11.52-18.43,25.67-29,27-13,1.63-31.25-17.5-29-32,2.08-13.38,19.89-11.74,37-35,10.33-14,7.28-19.29,17-27,15.23-12.08,32-6.59,35-15,2.86-8.08-12.46-13.56-13-29-.47-13.58,11.08-17.6,8-29-2.67-9.92-14.12-16.95-15.62-17.87-5-3.06-5.8-2-8.38-4.13-11.18-9.26-.17-32.95-6-36-5.51-2.9-25.84,12.87-28,33-1.54,14.42,7.19,22.17,3,27-5.55,6.39-21.89-6.13-51-6-11.22.05-26.85.11-32,9-5.55,9.58,7,19.3,3,35-3.43,13.6-17.71,25.62-25,23-11.64-4.19,4.78-42.1-16-66-13-15-27.71-9.49-41-21-13-11.24-22.92-37.26-5-104,8.1-7.46,19.34-17.75,33-30,14.17-12.71,18.48-16.36,26-18,14.67-3.21,25.29,4.74,29,0,4.47-5.71-9.83-18.57-5-27,4.63-8.08,23-5.55,27-5a55.62,55.62,0,0,1,23,9c6.24,4,10.41,8.29,15,13,6.46,6.62,6.92,8.5,12,14,8.82,9.52,16.76,18.12,24,17,7.77-1.21,6.93-12.38,20-30a97.62,97.62,0,0,1,25-24c16.91-10.94,29.54-10.27,30-16,.37-4.52-7.33-6.59-21-17-9.06-6.91-26.4-20.11-24-28,2.55-8.37,24.86-2.77,30-13,6.24-12.4-20.56-32.51-15-41,3.71-5.66,20.88-4.85,30,4,10.63,10.29,4.37,25.69,13,30,1.86.92,5,1.62,26-9,17.43-8.82,26.25-13.36,31-20,2.77-3.86,7.92-12.55,8-27-27.66-12.48-43.76-11.91-53-5-7.93,5.93-9.33,15.43-14,15-6.7-.63-15-21.28-8-35,6.48-12.67,19.76-7.2,32-22,5.36-6.48,8.57-16.65,15-37,3.9-12.32,5.92-21.19,8-21,3.45.3.88,24.83,8,27,7.58,2.3,20.43-22.4,23-21,2.22,1.2-7.89,19.18-12,44-.4,2.42-6,37.6,3,41,5.86,2.2,16.42-9.51,22-19,9.81-16.67,3.17-24.57,12-40,9.75-17,25.91-21.53,24-27-2.26-6.5-25.23-.81-28-8-2-5.17,9.09-10.15,20-27C413,16.71,414.14,5.37,418.29,5.67Z"/></g><g id="Layer_1-2" data-name="Layer 1"><path class="color_land cls-2" d="M413.72,0c6.22.43,6.78,26,15,27,5.35.63,7.75-9.87,15-10,6.06-.12,8,7.11,18,16,12.08,10.71,17.51,7.51,23,15,9.6,13.07,4.29,38.2-6,42-8.7,3.2-17.59-10.13-25-6-3.87,2.15-1.82,6-8,22-3.63,9.4-5.45,14.1-9.76,18.64-3.45,3.64-6.79,5.56-6.24,7.36.94,3,11.12-.12,14,4,3.69,5.25-10.21,14.23-9,25,1.78,15.74,33.63,15.55,40,36,3.85,12.32-5.07,20.92,1,28,7.15,8.32,22.23-.38,28,7,6.56,8.37-2.9,32.3-16,35-11.67,2.4-23.34-12.7-25-11s12.89,15.68,23,38c3.53,7.78,12,26.46,6,32-7.61,7-33.8-11.51-37-7-2.29,3.23,11.95,11.77,11,23-1.1,13.07-21.42,13.69-28,29-8.27,19.24,9.85,50.87,24,51,3.8,0,6.14-2.21,28-28,15.68-18.5,17.72-21.17,23-25,2.14-1.55,4.26-2.95,4.42-3.05a56.85,56.85,0,0,1,16.94-7.57c4.53-1.1,15.64-3.8,17.64-.38,3.56,6.07-27.72,21.72-25,40,1.84,12.32,16.81,16.67,15,23-2.91,10.18-43.11,3.71-46,14-1.6,5.72,10.26,9.83,16,26,2.71,7.6,5,20.62,0,24-6.44,4.32-16.91-12.62-36-13-12.78-.26-29.2,6.91-34,21-5.1,15,4.33,33.66,12,34,9.43.4,12-27.05,25-28,10.16-.75,21.94,15,19,22-2,4.71-9.66,2.84-13,8-4.66,7.22,4.17,20.55,9,28,24.4,37.55,36.59,56.32,33,62-5.47,8.66-44.43,3.8-63-20-14.86-19.07-13.21-45.87-20-46-4.59-.1-4.54,12.23-13,16-14.53,6.47-32.11-22.19-45-17-11.68,4.7-16.3,36-5,57,6.16,11.44,13.59,13.44,13,21-.94,12.15-21.53,24.43-40,23-17.45-1.36-24-14.26-30-11-9.66,5.26-8,47.37,15,64,7,5,18.95,5.1,36.73,6.71A56.51,56.51,0,0,1,399.72,720s1.08.62,2.14,1.32c12.31,8,28.05,29.23,23.86,34.68-4.31,5.61-24.68-12.28-63-17-15.09-1.86-45.55-5.62-55,10-5.77,9.54-3.34,25.74,5,33,7.34,6.37,17.11,4,18,8s-8.28,11-18,14c-13.77,4.21-19.6-2.21-30,3-9,4.48-6.92,10.4-14,13-13.67,5-25.28-15.62-41-12-12.57,2.88-15,18.34-20,17-7.46-2-11.4-39.16,5-51,9.49-6.85,18.09.31,34-7,13.39-6.15,24.56-19.15,22-25-2.69-6.17-18.44.63-43-6-11.3-3.06-29.53-8-33-21s8.55-30.22,22-34c11.76-3.31,19,5.32,29,0a21.81,21.81,0,0,0,11-19c-.17-11.37-10.56-19.43-19-22-12.47-3.81-24.08,3.35-30,7-18.68,11.52-18.43,25.67-29,27-13,1.63-31.24-17.5-29-32,2.08-13.38,19.89-11.74,37-35,10.33-14,7.28-19.29,17-27,15.23-12.08,32-6.59,35-15,2.86-8.08-12.46-13.56-13-29-.47-13.58,11.08-17.6,8-29-2.67-9.92-14.12-16.95-15.62-17.87-5-3.06-5.8-2-8.38-4.13-11.18-9.26-.17-32.95-6-36-5.51-2.9-25.84,12.87-28,33-1.54,14.42,7.19,22.17,3,27-5.55,6.39-21.89-6.13-51-6-11.21,0-26.84.11-32,9-5.55,9.58,7,19.3,3,35-3.43,13.6-17.71,25.62-25,23-11.64-4.19,4.78-42.1-16-66-13-15-27.71-9.49-41-21-13-11.25-22.92-37.26-5-104,8.1-7.47,19.34-17.75,33-30,14.17-12.71,18.48-16.36,26-18,14.67-3.21,25.29,4.74,29,0,4.48-5.71-9.83-18.57-5-27,4.63-8.08,23-5.55,27-5a55.62,55.62,0,0,1,23,9c6.24,4,10.41,8.29,15,13,6.46,6.62,6.92,8.49,12,14,8.82,9.52,16.77,18.12,24,17,7.77-1.21,6.93-12.38,20-30a97.45,97.45,0,0,1,25-24c16.91-10.94,29.54-10.27,30-16,.37-4.52-7.33-6.6-21-17-9.06-6.91-26.4-20.11-24-28,2.55-8.37,24.86-2.77,30-13,6.24-12.41-20.56-32.51-15-41,3.71-5.66,20.88-4.85,30,4,10.63,10.29,4.37,25.69,13,30,1.86.92,5,1.62,26-9,17.44-8.82,26.25-13.36,31-20,2.77-3.87,7.92-12.55,8-27-27.66-12.49-43.76-11.91-53-5-7.93,5.93-9.33,15.43-14,15-6.7-.63-15-21.28-8-35,6.48-12.67,19.77-7.2,32-22,5.36-6.48,8.57-16.65,15-37,3.9-12.32,5.92-21.19,8-21,3.46.3.88,24.83,8,27,7.58,2.3,20.43-22.4,23-21,2.22,1.2-7.89,19.18-12,44-.4,2.42-6,37.6,3,41,5.86,2.2,16.42-9.51,22-19,9.82-16.67,3.17-24.57,12-40,9.75-17,25.91-21.53,24-27-2.25-6.5-25.23-.81-28-8-2-5.17,9.09-10.15,20-27C408.41,11.05,409.57-.29,413.72,0Z"/><path class="color_single_mountain cls-3" d="M196.72,429c7.93-19.51-7.4-52.74-29-57-12.07-2.39-22.8,5.5-33,13-5.84,4.29-25.65,19.33-32,47-1.07,4.7-10.55,45.08,11,58,11.16,6.68,27.63,4.22,37.5-3.5,9.05-7.08,6.43-13.75,16-28C180.21,439.18,191.54,441.78,196.72,429Z"/><path class="color_single_mountain_two cls-4" d="M123.72,324c-3.77,1.81-1.55,7.57-5.5,13.5-7.2,10.81-24.13,5.86-43.5,9.5-22.13,4.15-47.09,19.44-56,42-6.44,16.32-2.59,31.65-1,38,8.93,35.54,45.28,66.69,63.5,59.5,21.3-8.41-2-61.33,34-100,16.56-17.78,35.76-21.93,35.5-36.5S130.83,320.59,123.72,324Z"/><path class=" color_single_mountain_two  cls-5" d="M295.22,291.51c-.67,1.32-4.76.22-8.47-.29-17.78-2.45-33.06,7.91-39.53,12.29-16.15,10.94-34.4,34.75-28,48,7.59,15.69,50.29,17.71,80,1,30.83-17.34,40.94-51.07,55-98,9.39-31.32,13.86-61.83,8-64-8.49-3.16-31.18,56.13-57,53-11-1.34-15.49-13.1-26-11-9.05,1.8-17.52,12.91-17,23C263.24,274.86,297.22,287.59,295.22,291.51Z"/><path class="cls-6" d="M386.22,229.51c-30.65,18.45-5.67,63.24-38,103-14.37,17.67-28.18,19.73-59,55-7.76,8.89-17.29,20.66-14,31,3.84,12.05,22.67,14.49,22,19-1,6.6-40.79-3.06-52,12-13.92,18.69,13,80,52,88,37.95,7.77,85-35.28,100-81,24.35-74.34-41.69-138.85-4-192,11.72-16.53,31.93-29.79,28-37C418,221.58,399.5,221.52,386.22,229.51Z"/><path class="color_single_mountain_three cls-7" d="M159.72,647c-.89-13.27,14-18.16,37-49,7.56-10.13,7.59-11.8,12-15,13.5-9.82,38.9-12.94,54,2,19,18.76,9.59,54,1,56-8.07,1.83-13-26.35-29-28-23.78-2.46-40.5,56.85-61,53C166.05,664.56,160.25,654.71,159.72,647Z"/><path class="color_single_mountain_two cls-3" d="M275.22,738.51c-6.59,30.25-16.48,39.64-25,42-10.84,3-18.39-5.71-29-1-14.4,6.39-18.81,30.58-15,33,.5.31,1.38.41,16-9,9.5-6.12,11.18-7.47,14-7,4.41.72,4.52,4.69,13,10,2.9,1.81,5.36,3.31,9,4,1.7.32,8.2,1.54,13-2,3.91-2.89,2.3-5.67,6-9,4.63-4.16,12.09-4.29,17-3,5.62,1.46,5.83,4.23,10,4,2-.12,2.37-.8,11-5,4.17-2,5-2.3,5-3,.19-2.74-11.33-2.66-17-10-3.65-4.75-3.31-10.57-3-16,1-17.48,11.53-25.17,8-30-2.4-3.3-9.52-2.78-20-2a77.09,77.09,0,0,0-8,1"/><path class="    cls-8" d="M386.22,530.51a57.63,57.63,0,0,0-7.33,5.78s-12.24,11.4-16.67,27.22c-7.84,28,28.17,49.82,19,69-4.9,10.25-20.1,14.27-30,14-21.3-.59-32.81-21.43-41-17-7.88,4.26.47,24.86-8,30-7.55,4.58-26.72-4.25-29-16-4-20.86,47.39-38.94,43-58-3.41-14.87-37.59-16.55-37-24,.52-6.35,25-1.82,51-17,21.52-12.57,22.52-26,43-31,3.62-.88,21.67-5.24,32,5,6.38,6.31,10.31,18.68,5,24-3.86,3.87-11.06,2.44-13,2"/><path class="color_single_mountain cls-4" d="M485.22,506.51c4.84.7,9.26,7.08,8,11-1.38,4.32-8.77,2.78-13,8-1,1.28-3.91,5.48-1,18,2.24,9.59,5.68,14.63,24,43,33,51.12,3.47,6.27,11,18,5.92,9.2,7.95,11.65,7,13-2.33,3.29-19.28-4.85-30-10-7.85-3.78-11.86-5.73-16-9-5.77-4.57-14-11.11-16-21-2.29-11.58,6-17.62,2-24-4.36-6.92-16.88-4.14-18-9-.42-1.84,1.07-3.5,8-10,10.21-9.57,12.72-11.34,19-17C479.9,508.79,481.7,506,485.22,506.51Z"/><path class="color_single_mountain_two cls-3" d="M507.72,385s-5.93,10.34-13,21c-6.65,10-10.75,9.12-42,32-12.73,9.32-17.64,13.57-20,21-2.79,8.8-1.2,19.59,3,21,4.88,1.63,9.1-10.75,26-19,5.18-2.53,12.33-5.91,18-3,6,3.07,5.5,10.69,9,11,5.15.44,13.66-15.33,9-22-3.78-5.43-14-1.65-16-6-2.78-6.11,14.71-19.17,14-20s-15.77,10.87-15,12c1,1.42,23.79-19.43,43-13,4.2,1.4,8.13,4.07,9,3,1.5-1.84-9.63-9.93-14-25-1.4-4.86-2.67-9.23-1-14,3.64-10.39,17.68-12.79,17-15-.5-1.67-9-2.21-16,2C513.73,374,511.68,378.11,507.72,385Z"/><path class="color_single_mountain cls-3" d="M414.22,402.51c-.27-1-.66-2.54-1.12-4.34-4.58-17.85-7.26-31.5-7.88-34.66-2.51-12.94-4-20.37-5-31a193.22,193.22,0,0,1-1-31c.81-15,1.43-26.52,8-39,4-7.61,9.62-18.27,20-20,11.53-1.93,21.45,8.38,23,10,7.42,7.7,4,11.39,13,27,4.45,7.71,6.73,9.31,15,23,7.67,12.66,7.6,14.4,7,15-3.19,3.2-26.74-21.79-36-16-5.46,3.41-5.33,17.14-3,26,2.12,8,5.92,11.53,4,16s-6.52,3.09-13,8c-7.36,5.58-10.05,13.88-13,23a77.26,77.26,0,0,0-3.31,17.24,80.21,80.21,0,0,0,.31,15.76"/><path class=" cls-9" d="M413.22,15.51c-5.41-2-24.68,23.53-18,34,2.07,3.23,4.84,2.17,13,6,14.16,6.63,13.69,13.07,25,18,10.5,4.56,13-.73,26,4,11.4,4.16,14.15,9.7,18,8,6.17-2.73,7.84-20.78,0-31-2.81-3.68-3.8-2.14-17-13-5.5-4.54-6.74-5.93-10-7-4.17-1.38-6.2-.42-17,0-8,.3-12,.37-14-1C412.51,28.87,416.73,16.79,413.22,15.51Z"/><path class="cls-7" d="M411.22,71.51c-10.14-.49-19.05,12.06-22,22-2.32,7.85-.17,11.55,0,21,.35,19.27-8.25,24-12,43-3.29,16.71-2.63,43.43,9,49,12.47,6,28.35-16.77,42-10,11.23,5.56,8.77,25,19,27,5,1,10.68-2.78,13-7,4.3-7.81-1.7-19-7-25-13.9-15.86-34.87-10-38-20s15.62-21.24,12-28c-3.47-6.5-22.88,0-25-5-2.59-6.07,26.31-16.14,29-36C433.05,89,422.65,72.05,411.22,71.51Z"/><path class="cls-7" d="M327.22,93.51c-.73-6.44-1.44-8-2-8-1.87-.05,0,17.61-11,30-2,2.24-4.66,4.16-10,8-11.16,8-14.61,7.81-21,14-4,3.88-8.47,8.34-9,15-.55,7,3.44,14.22,6,14,3.5-.31,1-14.11,10-21,3.36-2.57,7.24-3,15-4,6.81-.84,13.61-1.68,21,1,8.95,3.23,12.12,9.18,14,8,3.13-2-9-16.2-5-32,2.27-8.86,8.51-13.84,6-19-1.49-3.1-5.22-4.39-8-5"/></g></g></svg>